<?xml version="1.0" encoding="utf-8"?>
<!-- Generator: Adobe Illustrator 21.0.0, SVG Export Plug-In . SVG Version: 6.00 Build 0)  -->
<svg version="1.1" xmlns="http://www.w3.org/2000/svg" xmlns:xlink="http://www.w3.org/1999/xlink" x="0px" y="0px"
	 viewBox="0 0 766.8 201" style="enable-background:new 0 0 766.8 201;" xml:space="preserve">
<style type="text/css">
	.st0{fill:#E5E5E5;stroke:#8A8A8D;stroke-width:2.49;stroke-miterlimit:10;}
	.st1{fill:url(#SVGID_1_);}
	.st2{fill:url(#SVGID_2_);}
	.st3{fill:#F2F2F2;stroke:#006DA4;stroke-width:0.83;stroke-miterlimit:10;}
	.st4{fill:#F2F2F2;stroke:#006DA4;stroke-width:0.87;stroke-miterlimit:10;}
	.st5{fill:#F2F2F2;stroke:#006DA4;stroke-width:0.84;stroke-miterlimit:10;}
	.st6{fill:none;stroke:#8A8A8D;stroke-width:0.52;stroke-miterlimit:10;}
	.st7{fill:none;stroke:#8A8A8D;stroke-width:0.49;stroke-miterlimit:10;}
	.st8{fill:#FFFFFF;}
	.st9{font-family:'MyriadPro-Regular';}
	.st10{font-size:17.52px;}
	.st11{letter-spacing:-0.6;}
	.st12{letter-spacing:-1.3;}
	.st13{fill:none;}
	.st14{fill:#E5E5E5;stroke:#8A8A8D;stroke-width:0.41;stroke-miterlimit:10;}
	.st15{fill:#1B3E6F;}
	.st16{fill:#D0112B;stroke:#383737;stroke-width:0.9061;stroke-miterlimit:10;}
	.st17{fill:#006DA4;stroke:#383737;stroke-width:0.9061;stroke-miterlimit:10;}
</style>
<title>737-2</title>
<path class="st0" d="M389.1,150.8h219.9c67.6,0,81.3-1.6,134.4-11c5.3-0.9,22.2-15.5,22.2-39c0-26.4-17-38.1-22.2-39
	c-53.1-9.3-66.8-11-134.4-11H389.1"/>
<path class="st0" d="M389.7,50.9H215.4c-31.7,0.1-61.4,0.3-108.6,8.3c-8.3,1.4-17,3.1-25.6,4.9v73.5c8.6,1.8,17.3,3.4,25.6,4.9
	c47.2,8.1,76.9,8.2,108.6,8.3h174.3"/>
<linearGradient id="SVGID_1_" gradientUnits="userSpaceOnUse" x1="556.77" y1="105.17" x2="556.77" y2="55.87" gradientTransform="matrix(1 0 0 -1 -162.79 105.14)">
	<stop  offset="0" style="stop-color:#FFFFFF;stop-opacity:0"/>
	<stop  offset="1" style="stop-color:#CBC8C8"/>
</linearGradient>
<path class="st1" d="M487.6,49.3H300.3c6.4-5.3,17.5-16.7,23.4-27.4C325.4,19,330,10.6,335.9,0h151.8L487.6,49.3z"/>
<linearGradient id="SVGID_2_" gradientUnits="userSpaceOnUse" x1="555.77" y1="-95.89" x2="555.77" y2="-46.59" gradientTransform="matrix(1 0 0 -1 -162.79 105.14)">
	<stop  offset="0" style="stop-color:#FFFFFF;stop-opacity:0"/>
	<stop  offset="1" style="stop-color:#CBC8C8"/>
</linearGradient>
<path class="st2" d="M486.6,151.7H299.3c6.4,5.3,17.5,16.7,23.4,27.4c1.7,3,6.3,11.4,12.1,21.9h151.8L486.6,151.7z"/>
<rect x="246.2" y="54.1" class="st3" width="98.5" height="36"/>
<rect x="246.2" y="111.1" class="st3" width="98.5" height="36"/>
<rect x="398.7" y="54.1" class="st4" width="261" height="36"/>
<rect x="398.7" y="111.1" class="st5" width="261" height="36"/>
<path class="st6" d="M715.3,59.8l-0.7,5.7c-0.1,1.5-1.4,2.6-2.8,2.5c0,0-0.1,0-0.1,0l-18.1-2.8c-1.5-0.3-2.5-1.8-2.2-3.3l0.7-5.7"/>
<path class="st6" d="M715.3,143.4l-0.7-5.7c-0.1-1.5-1.4-2.6-2.8-2.5c0,0-0.1,0-0.1,0l-18.1,2.9c-1.5,0.3-2.5,1.8-2.2,3.3l0.7,5.7"
	/>
<rect x="721.3" y="70.7" class="st7" width="30.4" height="58.8"/>
<text transform="matrix(1.57 0 0 1 430.21 77.7598)" class="st8 st9 st10">S</text>
<text transform="matrix(1.57 0 0 1 443.7749 77.7598)" class="st8 st9 st10 st11">T</text>
<text transform="matrix(1.57 0 0 1 455.377 77.7598)" class="st8 st9 st10">AN</text>
<text transform="matrix(1.57 0 0 1 490.3096 77.7598)" class="st8 st9 st10">D</text>
<text transform="matrix(1.57 0 0 1 508.2393 77.7598)" class="st8 st9 st10">A</text>
<text transform="matrix(1.57 0 0 1 525.085 77.7598)" class="st8 st9 st10">R</text>
<text transform="matrix(1.57 0 0 1 540.126 77.7598)" class="st8 st9 st10">T SE</text>
<text transform="matrix(1.57 0 0 1 586.7236 77.7598)" class="st8 st9 st10 st12">A</text>
<text transform="matrix(1.57 0 0 1 601.4346 77.7598)" class="st8 st9 st10">T</text>
<text transform="matrix(1.57 0 0 1 614.9365 77.7598)" class="st8 st9 st10">S</text>
<text transform="matrix(1.57 0 0 1 430.21 132.7598)" class="st8 st9 st10">S</text>
<text transform="matrix(1.57 0 0 1 443.7749 132.7598)" class="st8 st9 st10 st11">T</text>
<text transform="matrix(1.57 0 0 1 455.377 132.7598)" class="st8 st9 st10">AN</text>
<text transform="matrix(1.57 0 0 1 490.3096 132.7598)" class="st8 st9 st10">D</text>
<text transform="matrix(1.57 0 0 1 508.2393 132.7598)" class="st8 st9 st10">A</text>
<text transform="matrix(1.57 0 0 1 525.085 132.7598)" class="st8 st9 st10">R</text>
<text transform="matrix(1.57 0 0 1 540.126 132.7598)" class="st8 st9 st10">T SE</text>
<text transform="matrix(1.57 0 0 1 586.7236 132.7598)" class="st8 st9 st10 st12">A</text>
<text transform="matrix(1.57 0 0 1 601.4346 132.7598)" class="st8 st9 st10">T</text>
<text transform="matrix(1.57 0 0 1 614.9365 132.7598)" class="st8 st9 st10">S</text>
<line class="st7" x1="721.3" y1="58.9" x2="721.3" y2="142.2"/>
<line class="st13" x1="597" y1="50.8" x2="389.7" y2="50.8"/>
<line class="st13" x1="389.7" y1="196.1" x2="598.1" y2="196.1"/>
<path class="st14" d="M22.7,82.8c-12.3,5.9-22.5,9.1-22.5,17.9s10.1,12,22.5,17.9c10.5,5,34.4,13.2,58.5,19.6v-75
	C57.1,69.6,33.2,77.8,22.7,82.8z"/>
<polygon class="st15" points="36.8,99.6 36.8,100 43.3,100 43.7,99.6 51.6,83 51.6,82.4 46,80.9 45.5,81 45.2,81.2 "/>
<polygon class="st15" points="47,79.5 46.7,79.8 47,79.9 52.7,81.4 53,81.4 61.4,78.2 61.4,77.9 57,74.1 56.6,74 56.3,74.1 "/>
<path class="st15" d="M58.7,74l3.9,3.7h0.3c0,0,8.2-3,8.6-3.2s0.8-0.4,0.8-0.8s0-2.1,0-2.4s-0.5-0.6-1.4-0.5s-11.5,2.5-11.8,2.6
	S58.4,73.8,58.7,74z"/>
<polygon class="st15" points="36.8,102.2 36.8,101.8 43.3,101.8 43.7,102.2 51.6,118.8 51.6,119.4 46,120.9 45.5,120.8 45.2,120.6 
	"/>
<polygon class="st15" points="47,122.3 46.7,122.1 47,121.8 52.7,120.4 53,120.4 61.4,123.6 61.4,123.9 57,127.7 56.6,127.8 
	56.3,127.7 "/>
<path class="st15" d="M58.7,127.8l3.9-3.6h0.3c0,0,8.2,3,8.6,3.2s0.8,0.4,0.8,0.8s0,2.1,0,2.4s-0.5,0.6-1.4,0.5s-11.5-2.5-11.8-2.6
	S58.4,128,58.7,127.8z"/>
<rect x="173.2" y="53.8" class="st16" width="19" height="36"/>
<rect x="173.2" y="112.4" class="st16" width="19" height="36"/>
<rect x="362.2" y="53.8" class="st17" width="19" height="36"/>
<rect x="362.2" y="112.4" class="st17" width="19" height="36"/>
</svg>
