<svg id="Слой_1" data-name="Слой 1" xmlns="http://www.w3.org/2000/svg" xmlns:xlink="http://www.w3.org/1999/xlink" viewBox="0 0 1100 250"><defs><style>.cls-1{fill:#8a8a8d;}.cls-2{fill:#cbc8c8;}.cls-3{fill:#1b3f6f;}.cls-3,.cls-4{stroke:#fff;stroke-width:0.42px;}.cls-10,.cls-11,.cls-12,.cls-3,.cls-4,.cls-5,.cls-8,.cls-9{stroke-miterlimit:10;}.cls-4{fill:#3e91ff;}.cls-5{fill:none;stroke:#8a8a8d;stroke-width:0.38px;}.cls-6{fill:url(#Безымянный_градиент_8);}.cls-7{fill:url(#Безымянный_градиент_8-2);}.cls-10,.cls-11,.cls-12,.cls-8,.cls-9{fill:#f2f2f2;stroke:#006da4;}.cls-8{stroke-width:0.82px;}.cls-9{stroke-width:0.91px;}.cls-10{stroke-width:0.97px;}.cls-11{stroke-width:0.81px;}.cls-12{stroke-width:0.9px;}</style><linearGradient id="Безымянный_градиент_8" x1="1008.45" y1="723.8" x2="1008.45" y2="665.65" gradientTransform="translate(-56.2 901.77)" gradientUnits="userSpaceOnUse"><stop offset="0" stop-color="#fff" stop-opacity="0"/><stop offset="1" stop-color="#cbc8c8"/></linearGradient><linearGradient id="Безымянный_градиент_8-2" x1="1008.45" y1="1224.57" x2="1008.45" y2="1166.42" gradientTransform="matrix(1, 0, 0, -1, -56.2, 2600.14)" xlink:href="#Безымянный_градиент_8"/></defs><title>747-1</title><path class="cls-1" d="M1321.92,1433.72H678.28c-18.85,0-54.22,2.26-90.64,5s-109.48,16.74-127.6,23.17-60.41,18.17-60.41,38.65,42.29,32.22,60.41,38.65,91.18,20.4,127.6,23.17,71.79,5,90.64,5h643.64c71.4,0,177.71-23.56,177.71-23.56v-86.57S1393.32,1433.72,1321.92,1433.72Z" transform="translate(-399.63 -1375.57)"/><path class="cls-2" d="M1319.53,1436.81H681.86c-18.85,0-54.22,2.15-90.64,4.79s-109.48,16-127.6,22.1c-10.44,3.53-28.88,8.75-42.65,16.27v41.17c13.77,7.52,32.22,12.73,42.65,16.27,18.12,6.14,91.18,19.46,127.6,22.1s71.79,4.8,90.64,4.8h637.67c71.4,0,177.71-22.48,177.71-22.48v-82.57S1390.93,1436.81,1319.53,1436.81Z" transform="translate(-399.63 -1375.57)"/><rect class="cls-3" x="365.9" y="156.77" width="8.21" height="9.84"/><rect class="cls-3" x="365.9" y="166.61" width="8.21" height="9.84"/><rect class="cls-3" x="407.22" y="62.64" width="8.21" height="9.84"/><rect class="cls-3" x="407.22" y="72.48" width="8.21" height="9.84"/><rect class="cls-3" x="407.22" y="82.33" width="8.21" height="9.84"/><rect class="cls-3" x="430.21" y="115.43" width="8.21" height="9.84"/><rect class="cls-3" x="430.21" y="125.27" width="8.21" height="9.84"/><rect class="cls-3" x="430.21" y="135.11" width="8.21" height="9.84"/><rect class="cls-3" x="430.21" y="105.59" width="8.21" height="9.84"/><rect class="cls-3" x="587.32" y="156.77" width="8.21" height="9.84"/><rect class="cls-3" x="587.32" y="166.61" width="8.21" height="9.84"/><rect class="cls-3" x="587.32" y="74.2" width="8.21" height="9.84"/><rect class="cls-3" x="587.32" y="84.05" width="8.21" height="9.84"/><rect class="cls-3" x="601.09" y="115.43" width="8.21" height="9.84"/><rect class="cls-3" x="601.09" y="125.27" width="8.21" height="9.84"/><rect class="cls-3" x="601.09" y="135.11" width="8.21" height="9.84"/><rect class="cls-3" x="601.09" y="105.59" width="8.21" height="9.84"/><rect class="cls-3" x="777.02" y="156.77" width="8.21" height="9.84"/><rect class="cls-3" x="777.02" y="166.61" width="8.21" height="9.84"/><rect class="cls-3" x="777.02" y="64.36" width="8.21" height="9.84"/><rect class="cls-3" x="777.02" y="74.2" width="8.21" height="9.84"/><rect class="cls-3" x="777.02" y="84.05" width="8.21" height="9.84"/><rect class="cls-3" x="239.86" y="115.43" width="8.21" height="9.84"/><rect class="cls-3" x="239.86" y="125.27" width="8.21" height="9.84"/><rect class="cls-3" x="239.86" y="135.11" width="8.21" height="9.84"/><rect class="cls-3" x="239.86" y="105.59" width="8.21" height="9.84"/><polygon class="cls-4" points="158.6 155.99 150.5 154.47 152.03 144.77 160.13 146.29 158.6 155.99"/><polygon class="cls-4" points="157.06 165.69 148.97 164.17 150.5 154.47 158.6 155.99 157.06 165.69"/><polygon class="cls-4" points="155.54 175.39 147.44 173.87 148.97 164.17 157.06 165.69 155.54 175.39"/><polygon class="cls-4" points="145.03 153.44 136.93 151.93 138.46 142.23 146.56 143.74 145.03 153.44"/><polygon class="cls-4" points="143.49 163.15 135.4 161.63 136.93 151.93 145.03 153.44 143.49 163.15"/><polygon class="cls-4" points="141.96 172.84 133.87 171.33 135.4 161.63 143.49 163.15 141.96 172.84"/><polygon class="cls-4" points="131.45 150.9 123.36 149.38 124.89 139.68 132.98 141.2 131.45 150.9"/><polygon class="cls-4" points="129.92 160.6 121.83 159.08 123.36 149.38 131.45 150.9 129.92 160.6"/><polygon class="cls-4" points="128.39 170.3 120.3 168.78 121.83 159.08 129.92 160.6 128.39 170.3"/><polygon class="cls-4" points="117.88 148.35 109.79 146.83 111.32 137.13 119.41 138.65 117.88 148.35"/><polygon class="cls-4" points="116.35 158.05 108.26 156.54 109.79 146.83 117.88 148.35 116.35 158.05"/><polygon class="cls-4" points="114.82 167.75 106.73 166.24 108.26 156.54 116.35 158.05 114.82 167.75"/><polygon class="cls-4" points="104.31 145.81 96.21 144.29 97.74 134.59 105.84 136.11 104.31 145.81"/><polygon class="cls-4" points="102.78 155.51 94.68 153.99 96.21 144.29 104.31 145.81 102.78 155.51"/><polygon class="cls-4" points="101.25 165.21 93.16 163.69 94.68 153.99 102.78 155.51 101.25 165.21"/><polygon class="cls-3" points="90.74 143.26 82.64 141.74 84.17 132.04 92.27 133.56 90.74 143.26"/><polygon class="cls-3" points="89.21 152.96 81.11 151.45 82.64 141.74 90.74 143.26 89.21 152.96"/><polygon class="cls-3" points="87.68 162.66 79.58 161.14 81.11 151.45 89.21 152.96 87.68 162.66"/><polygon class="cls-4" points="71.75 145.02 63.65 143.5 65.18 133.79 73.28 135.31 71.75 145.02"/><polygon class="cls-4" points="70.22 154.71 62.12 153.2 63.65 143.5 71.75 145.02 70.22 154.71"/><polygon class="cls-4" points="58.17 142.47 50.08 140.95 51.61 131.25 59.7 132.77 58.17 142.47"/><polygon class="cls-4" points="56.64 152.17 48.55 150.65 50.08 140.95 58.17 142.47 56.64 152.17"/><polygon class="cls-4" points="44.6 139.92 36.51 138.41 38.04 128.71 46.13 130.22 44.6 139.92"/><polygon class="cls-4" points="43.07 149.62 34.98 148.1 36.51 138.41 44.6 139.92 43.07 149.62"/><polygon class="cls-3" points="205.41 90 197.21 90.48 196.72 80.66 204.92 80.17 205.41 90"/><polygon class="cls-3" points="205.9 99.83 197.7 100.31 197.21 90.48 205.41 90 205.9 99.83"/><polygon class="cls-4" points="159.16 84.35 151.06 85.87 149.54 76.16 157.63 74.65 159.16 84.35"/><polygon class="cls-4" points="160.68 94.05 152.59 95.56 151.06 85.87 159.16 84.35 160.68 94.05"/><polygon class="cls-4" points="162.21 103.75 154.12 105.27 152.59 95.56 160.68 94.05 162.21 103.75"/><polygon class="cls-4" points="145.58 86.89 137.49 88.41 135.96 78.7 144.06 77.19 145.58 86.89"/><polygon class="cls-4" points="147.11 96.59 139.02 98.11 137.49 88.41 145.58 86.89 147.11 96.59"/><polygon class="cls-4" points="148.64 106.29 140.55 107.81 139.02 98.11 147.11 96.59 148.64 106.29"/><polygon class="cls-4" points="132.01 89.43 123.92 90.95 122.39 81.25 130.48 79.73 132.01 89.43"/><polygon class="cls-4" points="133.54 99.13 125.44 100.65 123.92 90.95 132.01 89.43 133.54 99.13"/><polygon class="cls-4" points="135.07 108.83 126.97 110.35 125.44 100.65 133.54 99.13 135.07 108.83"/><polygon class="cls-4" points="118.44 91.97 110.34 93.49 108.82 83.79 116.91 82.27 118.44 91.97"/><polygon class="cls-4" points="119.97 101.67 111.87 103.19 110.34 93.49 118.44 91.97 119.97 101.67"/><polygon class="cls-4" points="121.49 111.37 113.4 112.89 111.87 103.19 119.97 101.67 121.49 111.37"/><polygon class="cls-4" points="104.86 94.51 96.77 96.03 95.24 86.33 103.33 84.81 104.86 94.51"/><polygon class="cls-4" points="106.39 104.21 98.3 105.73 96.77 96.03 104.86 94.51 106.39 104.21"/><polygon class="cls-4" points="107.92 113.91 99.82 115.43 98.3 105.73 106.39 104.21 107.92 113.91"/><polygon class="cls-4" points="91.29 97.05 83.19 98.57 81.67 88.87 89.76 87.35 91.29 97.05"/><polygon class="cls-4" points="92.82 106.75 84.72 108.27 83.19 98.57 91.29 97.05 92.82 106.75"/><polygon class="cls-4" points="94.34 116.46 86.25 117.97 84.72 108.27 92.82 106.75 94.34 116.46"/><polygon class="cls-3" points="77.71 99.59 69.62 101.11 68.09 91.41 76.18 89.89 77.71 99.59"/><polygon class="cls-3" points="79.24 109.3 71.15 110.81 69.62 101.11 77.71 99.59 79.24 109.3"/><polygon class="cls-3" points="80.77 119 72.68 120.51 71.15 110.81 79.24 109.3 80.77 119"/><polygon class="cls-4" points="58.03 110.74 49.94 112.26 48.41 102.56 56.5 101.04 58.03 110.74"/><polygon class="cls-4" points="59.56 120.44 51.46 121.96 49.94 112.26 58.03 110.74 59.56 120.44"/><polygon class="cls-4" points="44.46 113.28 36.36 114.8 34.84 105.1 42.93 103.58 44.46 113.28"/><polygon class="cls-4" points="45.98 122.98 37.89 124.5 36.36 114.8 44.46 113.28 45.98 122.98"/><rect class="cls-4" x="148.32" y="116.2" width="8.21" height="9.84"/><rect class="cls-4" x="148.32" y="126.04" width="8.21" height="9.84"/><rect class="cls-3" x="134.55" y="116.2" width="8.21" height="9.84"/><rect class="cls-3" x="134.55" y="126.04" width="8.21" height="9.84"/><rect class="cls-3" x="190.62" y="121.03" width="8.21" height="9.84"/><rect class="cls-3" x="190.62" y="130.87" width="8.21" height="9.84"/><rect class="cls-3" x="190.62" y="111.19" width="8.21" height="9.84"/><path class="cls-5" d="M756.8,1564.34v-4.2a2,2,0,0,0-1.87-2.13H741.15a2,2,0,0,0-2,2s0,.09,0,.13v4.21" transform="translate(-399.63 -1375.57)"/><path class="cls-5" d="M756.8,1436.81V1441a2,2,0,0,1-1.87,2.13H741.15a2,2,0,0,1-2-2s0-.09,0-.13v-4.21" transform="translate(-399.63 -1375.57)"/><path class="cls-5" d="M972.33,1564.34v-4.2a2,2,0,0,0-1.87-2.13H956.65a2,2,0,0,0-2,2s0,.06,0,.08v4.21" transform="translate(-399.63 -1375.57)"/><path class="cls-5" d="M972.33,1436.81V1441a2,2,0,0,1-1.87,2.13H956.65a2,2,0,0,1-2-2s0-.06,0-.08v-4.21" transform="translate(-399.63 -1375.57)"/><path class="cls-5" d="M1163.47,1564.34v-4.2a2,2,0,0,0-1.87-2.13h-13.8a2,2,0,0,0-2,2s0,.09,0,.13v4.21" transform="translate(-399.63 -1375.57)"/><path class="cls-5" d="M1163.47,1436.81V1441a2,2,0,0,1-1.87,2.13h-13.8a2,2,0,0,1-2-2s0-.06,0-.08v-4.21" transform="translate(-399.63 -1375.57)"/><path class="cls-5" d="M1419.42,1554.63l-.49-4.17a2,2,0,0,0-2.15-1.84h0l-13.62,1.89a2.1,2.1,0,0,0-1.69,2.38l.49,4.17" transform="translate(-399.63 -1375.57)"/><path class="cls-5" d="M1419.42,1444.79l-.49,4.17a2,2,0,0,1-2.15,1.84h0l-13.62-1.89a2.1,2.1,0,0,1-1.69-2.38l.49-4.17" transform="translate(-399.63 -1375.57)"/><path class="cls-5" d="M582.8,1558.8l.43-4.18a2.09,2.09,0,0,0-1.72-2.35l-13.71-1.66a2,2,0,0,0-2.15,1.84v0l-.43,4.18" transform="translate(-399.63 -1375.57)"/><path class="cls-5" d="M582.8,1442.34l.43,4.18a2.09,2.09,0,0,1-1.72,2.35l-13.71,1.66a2,2,0,0,1-2.15-1.84v0l-.43-4.18" transform="translate(-399.63 -1375.57)"/><path class="cls-6" d="M1080.28,1567.42l7.66,58.15H882.5s-26.11-36.82-33.18-46.37-32.75-11.78-32.75-11.78Z" transform="translate(-399.63 -1375.57)"/><path class="cls-7" d="M1080.28,1433.72l7.66-58.15H882.5s-26.11,36.82-33.18,46.37-32.75,11.78-32.75,11.78Z" transform="translate(-399.63 -1375.57)"/><rect class="cls-8" x="223.91" y="64.61" width="107.35" height="29.26"/><rect class="cls-8" x="430.73" y="64.61" width="107.35" height="29.26"/><rect class="cls-9" x="606.76" y="64.61" width="127.88" height="30.12"/><rect class="cls-9" x="800.94" y="64.61" width="127.88" height="30.12"/><rect class="cls-8" x="223.91" y="156.69" width="107.35" height="29.26"/><rect class="cls-10" x="384.94" y="157.55" width="153.14" height="28.4"/><rect class="cls-9" x="602.81" y="156.69" width="130.24" height="29.26"/><rect class="cls-9" x="798.57" y="156.69" width="130.24" height="29.26"/><rect class="cls-11" x="249.96" y="106.78" width="80.51" height="37.87"/><rect class="cls-11" x="457.57" y="106.78" width="80.51" height="37.87"/><rect class="cls-12" x="616.23" y="106.78" width="97.88" height="37.87"/><rect class="cls-12" x="830.14" y="106.78" width="97.88" height="37.87"/></svg>