<svg xmlns="http://www.w3.org/2000/svg" xmlns:xlink="http://www.w3.org/1999/xlink" viewBox="0 0 1100 250"><defs><style>.cls-1{fill:#8a8a8d;}.cls-2{fill:#cbc8c8;}.cls-3{fill:none;stroke:#8a8a8d;stroke-width:0.38px;}.cls-10,.cls-11,.cls-12,.cls-13,.cls-14,.cls-15,.cls-16,.cls-17,.cls-18,.cls-19,.cls-20,.cls-21,.cls-22,.cls-23,.cls-24,.cls-25,.cls-26,.cls-3,.cls-6,.cls-7,.cls-8,.cls-9{stroke-miterlimit:10;}.cls-4{fill:url(#Безымянный_градиент_8);}.cls-5{fill:url(#Безымянный_градиент_8-2);}.cls-17,.cls-6,.cls-7,.cls-8{fill:#3e91ff;}.cls-10,.cls-11,.cls-12,.cls-13,.cls-14,.cls-15,.cls-16,.cls-17,.cls-18,.cls-19,.cls-20,.cls-21,.cls-22,.cls-23,.cls-24,.cls-25,.cls-26,.cls-6,.cls-7,.cls-8,.cls-9{stroke:#fff;}.cls-6{stroke-width:0.28px;}.cls-7,.cls-9{stroke-width:0.34px;}.cls-8{stroke-width:0.26px;}.cls-10,.cls-11,.cls-14,.cls-15,.cls-16,.cls-18,.cls-9{fill:#1b3f6f;}.cls-10{stroke-width:0.26px;}.cls-11{stroke-width:0.34px;}.cls-12,.cls-13,.cls-19,.cls-20,.cls-21,.cls-22,.cls-23,.cls-24,.cls-25,.cls-26{fill:#e8e8e8;}.cls-12{stroke-width:0.25px;}.cls-13{stroke-width:0.31px;}.cls-14,.cls-19{stroke-width:0.29px;}.cls-15{stroke-width:0.24px;}.cls-16{stroke-width:0.25px;}.cls-17,.cls-18{stroke-width:0.36px;}.cls-20{stroke-width:0.33px;}.cls-21{stroke-width:0.36px;}.cls-22{stroke-width:0.33px;}.cls-23{stroke-width:0.32px;}.cls-24{stroke-width:0.33px;}.cls-25{stroke-width:0.34px;}.cls-26{stroke-width:0.28px;}</style><linearGradient id="Безымянный_градиент_8" x1="1008.45" y1="723.8" x2="1008.45" y2="665.65" gradientTransform="translate(-56.2 901.77)" gradientUnits="userSpaceOnUse"><stop offset="0" stop-color="#fff" stop-opacity="0"/><stop offset="1" stop-color="#cbc8c8"/></linearGradient><linearGradient id="Безымянный_градиент_8-2" x1="1008.45" y1="1224.57" x2="1008.45" y2="1166.42" gradientTransform="matrix(1, 0, 0, -1, -56.2, 2600.14)" xlink:href="#Безымянный_градиент_8"/></defs><title>747-2</title><path class="cls-1" d="M1321.92,1433.72H678.28c-18.85,0-54.22,2.26-90.64,5s-109.48,16.74-127.6,23.17-60.41,18.17-60.41,38.65,42.29,32.22,60.41,38.65,91.18,20.4,127.6,23.17,71.79,5,90.64,5h643.64c71.4,0,177.71-23.56,177.71-23.56v-86.57S1393.32,1433.72,1321.92,1433.72Z" transform="translate(-399.63 -1375.57)"/><path class="cls-2" d="M1319.53,1436.81H681.86c-18.85,0-54.22,2.15-90.64,4.79s-109.48,16-127.6,22.1c-10.44,3.53-28.88,8.75-42.65,16.27v41.17c13.77,7.52,32.22,12.73,42.65,16.27,18.12,6.14,91.18,19.46,127.6,22.1s71.79,4.8,90.64,4.8h637.67c71.4,0,177.71-22.48,177.71-22.48v-82.57S1390.93,1436.81,1319.53,1436.81Z" transform="translate(-399.63 -1375.57)"/><path class="cls-3" d="M756.8,1564.34v-4.2a2,2,0,0,0-1.87-2.13H741.15a2,2,0,0,0-2,2s0,.09,0,.13v4.21" transform="translate(-399.63 -1375.57)"/><path class="cls-3" d="M756.8,1436.81V1441a2,2,0,0,1-1.87,2.13H741.15a2,2,0,0,1-2-2s0-.09,0-.13v-4.21" transform="translate(-399.63 -1375.57)"/><path class="cls-3" d="M972.33,1564.34v-4.2a2,2,0,0,0-1.87-2.13H956.65a2,2,0,0,0-2,2s0,.06,0,.08v4.21" transform="translate(-399.63 -1375.57)"/><path class="cls-3" d="M972.33,1436.81V1441a2,2,0,0,1-1.87,2.13H956.65a2,2,0,0,1-2-2s0-.06,0-.08v-4.21" transform="translate(-399.63 -1375.57)"/><path class="cls-3" d="M1163.47,1564.34v-4.2a2,2,0,0,0-1.87-2.13h-13.8a2,2,0,0,0-2,2s0,.09,0,.13v4.21" transform="translate(-399.63 -1375.57)"/><path class="cls-3" d="M1163.47,1436.81V1441a2,2,0,0,1-1.87,2.13h-13.8a2,2,0,0,1-2-2s0-.06,0-.08v-4.21" transform="translate(-399.63 -1375.57)"/><path class="cls-3" d="M1419.42,1554.63l-.49-4.17a2,2,0,0,0-2.15-1.84h0l-13.62,1.89a2.1,2.1,0,0,0-1.69,2.38l.49,4.17" transform="translate(-399.63 -1375.57)"/><path class="cls-3" d="M1419.42,1444.79l-.49,4.17a2,2,0,0,1-2.15,1.84h0l-13.62-1.89a2.1,2.1,0,0,1-1.69-2.38l.49-4.17" transform="translate(-399.63 -1375.57)"/><path class="cls-3" d="M582.8,1558.8l.43-4.18a2.09,2.09,0,0,0-1.72-2.35l-13.71-1.66a2,2,0,0,0-2.15,1.84v0l-.43,4.18" transform="translate(-399.63 -1375.57)"/><path class="cls-3" d="M582.8,1442.34l.43,4.18a2.09,2.09,0,0,1-1.72,2.35l-13.71,1.66a2,2,0,0,1-2.15-1.84v0l-.43-4.18" transform="translate(-399.63 -1375.57)"/><path class="cls-4" d="M1080.28,1567.42l7.66,58.15H882.5s-26.11-36.82-33.18-46.37-32.75-11.78-32.75-11.78Z" transform="translate(-399.63 -1375.57)"/><path class="cls-5" d="M1080.28,1433.72l7.66-58.15H882.5s-26.11,36.82-33.18,46.37-32.75,11.78-32.75,11.78Z" transform="translate(-399.63 -1375.57)"/><rect class="cls-6" x="439.16" y="1471.58" width="33.53" height="16.77" transform="translate(-773.11 -1203.37) rotate(-15.26)"/><rect class="cls-6" x="438.31" y="1512.4" width="33.53" height="16.77" transform="translate(15.58 -1441.7) rotate(15.22)"/><rect class="cls-7" x="528.05" y="1451.14" width="33.53" height="24.25" transform="translate(-652.85 -1254.36) rotate(-10.32)"/><rect class="cls-8" x="152.33" y="111.97" width="20" height="24.25"/><rect class="cls-9" x="485.61" y="1458.86" width="33.53" height="24.25" transform="translate(-654.92 -1261.83) rotate(-10.32)"/><rect class="cls-10" x="126.59" y="111.97" width="20" height="24.25"/><rect class="cls-10" x="199.69" y="111.97" width="20" height="24.25"/><rect class="cls-10" x="370.54" y="155.02" width="20" height="24.25"/><rect class="cls-11" x="260.53" y="102.43" width="20" height="40"/><rect class="cls-12" x="292.3" y="102.43" width="40" height="40"/><rect class="cls-11" x="450.41" y="103.43" width="20" height="40"/><rect class="cls-12" x="477.67" y="103.43" width="68.16" height="40"/><rect class="cls-12" x="639.84" y="103.43" width="68.16" height="40"/><rect class="cls-13" x="848.74" y="103.43" width="107.76" height="40"/><rect class="cls-14" x="420.56" y="61.67" width="20" height="30"/><rect class="cls-15" x="587.51" y="153.02" width="20" height="20"/><rect class="cls-11" x="610.39" y="103.43" width="20" height="40"/><rect class="cls-16" x="587.54" y="70.41" width="21.27" height="21.27"/><rect class="cls-10" x="768.93" y="151.02" width="20" height="24.25"/><rect class="cls-14" x="768.95" y="60.67" width="20" height="30"/><rect class="cls-10" x="213.23" y="67.55" width="20" height="24.25"/><rect class="cls-17" x="528.05" y="1524.18" width="33.53" height="27.06" transform="translate(-83.83 -1453.08) rotate(11.44)"/><rect class="cls-18" x="485.19" y="1515.71" width="33.53" height="27.06" transform="translate(-86.37 -1444.74) rotate(11.44)"/><rect class="cls-19" x="229.57" y="112.22" width="20" height="30"/><rect class="cls-20" x="203.19" y="154.14" width="130.63" height="30"/><rect class="cls-21" x="396.96" y="156.32" width="148.87" height="30"/><rect class="cls-22" x="444.41" y="62.67" width="126.2" height="30"/><rect class="cls-23" x="612.81" y="62.67" width="122.56" height="29"/><rect class="cls-24" x="821.53" y="63.67" width="134.96" height="29"/><rect class="cls-23" x="612.81" y="153.14" width="122.56" height="29"/><rect class="cls-25" x="816.35" y="153.14" width="140.15" height="29"/><rect class="cls-26" x="240.06" y="62.67" width="92.71" height="30"/></svg>