<svg xmlns="http://www.w3.org/2000/svg" viewBox="0 0 498.83 94.99"><defs><style>.cls-1,.cls-7{fill:#8a8a8d;}.cls-2,.cls-4{fill:#cbc8c8;}.cls-11,.cls-12,.cls-3,.cls-6{fill:none;}.cls-11,.cls-3,.cls-4,.cls-6{stroke:#8a8a8d;}.cls-10,.cls-11,.cls-12,.cls-13,.cls-3,.cls-4,.cls-6,.cls-7,.cls-8,.cls-9{stroke-miterlimit:10;}.cls-3,.cls-4{stroke-width:0.73px;}.cls-5{fill:#1b3e6f;}.cls-6{stroke-width:0.76px;}.cls-7{stroke:#1b3f6f;}.cls-12,.cls-7{stroke-width:0.82px;}.cls-8{fill:#1b3f6f;stroke:#1b3e6f;}.cls-10,.cls-9{fill:#cf0a2c;}.cls-10,.cls-12,.cls-13,.cls-9{stroke:#fff;}.cls-9{stroke-width:0.33px;}.cls-10{stroke-width:0.36px;}.cls-11{stroke-width:0.47px;}.cls-12{stroke-dasharray:0.98 0.98;}.cls-13{fill:#55565a;stroke-width:0.28px;}</style></defs><title>upper-deck</title><path class="cls-1" d="M947.86,491.47V473.92H924.34v-8.55H656.63c-39.54,0-73.33,2.76-103.85,8v79c30.52,5.23,64.31,8,103.85,8H924.34V551.8h23.52V534.25H972V491.47Z" transform="translate(-473.22 -465.36)"/><path class="cls-2" d="M944.83,494.62V476.9H921.31V469H656.63c-76.59,0-131.62,9.52-183,26.79v34.12C525,547.18,580,556.7,656.63,556.7H921.31v-7.9h23.52V531.09H969V494.62Z" transform="translate(-473.22 -465.36)"/><rect class="cls-3" x="79.56" y="20.76" width="21.04" height="22.87"/><rect class="cls-3" x="100.59" y="20.76" width="21.04" height="22.87"/><polygon class="cls-3" points="121.63 89.13 79.56 84.16 79.56 57.34 121.63 57.34 121.63 89.13"/><path class="cls-4" d="M473.58,494.38v37a452.11,452.11,0,0,0,79.19,21v-79A452.1,452.1,0,0,0,473.58,494.38Z" transform="translate(-473.22 -465.36)"/><polygon class="cls-5" points="41.25 20.44 33.19 23.75 33.17 30.1 41.26 27.49 41.25 20.44"/><polygon class="cls-5" points="21.8 28.4 21.62 28.75 28.35 31.71 31.38 30.67 31.43 24.72 31.15 24.59 21.8 28.4"/><path class="cls-5" d="M489,511.62l.47-.62a11.76,11.76,0,0,1,.6-3.11,14.77,14.77,0,0,1,2.66-5,17.67,17.67,0,0,1,2.76-2.77c.83-.61,3.32-2.1,3.32-2.1l.29-.24L492.46,495l-.59,0a28.4,28.4,0,0,0-4.21,2.18,54.31,54.31,0,0,0-6,4.62c-1.15,1.13-2.92,3.1-2.92,3.1l-.29.73L478,511.2l.27.43Z" transform="translate(-473.22 -465.36)"/><polygon class="cls-5" points="33.19 71.35 41.25 74.67 41.26 67.62 33.17 65.01 33.19 71.35"/><polygon class="cls-5" points="28.35 63.4 21.62 66.36 21.8 66.71 31.15 70.52 31.43 70.39 31.38 64.44 28.35 63.4"/><path class="cls-5" d="M498.83,527.82s-2.49-1.49-3.32-2.1a17.78,17.78,0,0,1-2.76-2.77,14.77,14.77,0,0,1-2.66-5,11.76,11.76,0,0,1-.6-3.11l-.47-.63H478.31l-.27.43.43,5.53.29.73s1.77,2,2.92,3.1a54,54,0,0,0,6,4.62,28.29,28.29,0,0,0,4.21,2.18l.59,0,6.66-2.76Z" transform="translate(-473.22 -465.36)"/><rect class="cls-3" x="365.01" y="53.8" width="44.57" height="20.27"/><rect class="cls-3" x="365.01" y="74.07" width="83.09" height="17.27"/><polygon class="cls-3" points="390.14 3.64 448.09 3.64 448.09 11.54 471.62 11.54 471.62 29.26 390.14 29.26 390.14 3.64"/><line class="cls-3" x1="406.39" y1="74.07" x2="406.39" y2="53.8"/><line class="cls-3" x1="403.1" y1="74.07" x2="403.1" y2="53.8"/><line class="cls-3" x1="399.81" y1="74.07" x2="399.81" y2="53.8"/><line class="cls-3" x1="396.52" y1="74.07" x2="396.52" y2="53.8"/><line class="cls-3" x1="393.24" y1="74.07" x2="393.24" y2="53.8"/><line class="cls-3" x1="389.94" y1="74.07" x2="389.94" y2="53.8"/><rect class="cls-6" x="369.16" y="3.64" width="20.98" height="36.65"/><rect class="cls-7" x="280.82" y="6.21" width="10.4" height="11.44"/><rect class="cls-7" x="280.82" y="17.64" width="10.4" height="11.44"/><rect class="cls-7" x="280.82" y="29.08" width="10.4" height="11.44"/><rect class="cls-8" x="291.22" y="6.21" width="2.09" height="11.44"/><rect class="cls-8" x="291.22" y="17.64" width="2.09" height="11.44"/><rect class="cls-8" x="291.22" y="29.08" width="2.09" height="11.44"/><rect class="cls-7" x="280.82" y="55.86" width="10.4" height="11.44"/><rect class="cls-7" x="280.82" y="67.3" width="10.4" height="11.44"/><rect class="cls-7" x="280.82" y="78.73" width="10.4" height="11.44"/><rect class="cls-8" x="291.22" y="55.86" width="2.09" height="11.44"/><rect class="cls-8" x="291.22" y="67.3" width="2.09" height="11.44"/><rect class="cls-8" x="291.22" y="78.73" width="2.09" height="11.44"/><rect class="cls-7" x="298.26" y="6.21" width="10.4" height="11.44"/><rect class="cls-7" x="298.26" y="17.64" width="10.4" height="11.44"/><rect class="cls-7" x="298.26" y="29.08" width="10.4" height="11.44"/><rect class="cls-8" x="308.67" y="6.21" width="2.09" height="11.44"/><rect class="cls-8" x="308.67" y="17.64" width="2.09" height="11.44"/><rect class="cls-8" x="308.67" y="29.08" width="2.09" height="11.44"/><rect class="cls-7" x="298.26" y="55.86" width="10.4" height="11.44"/><rect class="cls-7" x="298.26" y="67.3" width="10.4" height="11.44"/><rect class="cls-7" x="298.26" y="78.73" width="10.4" height="11.44"/><rect class="cls-8" x="308.67" y="55.86" width="2.09" height="11.44"/><rect class="cls-8" x="308.67" y="67.3" width="2.09" height="11.44"/><rect class="cls-8" x="308.67" y="78.73" width="2.09" height="11.44"/><rect class="cls-7" x="315.71" y="6.21" width="10.4" height="11.44"/><rect class="cls-7" x="315.71" y="17.64" width="10.4" height="11.44"/><rect class="cls-7" x="315.71" y="29.08" width="10.4" height="11.44"/><rect class="cls-8" x="326.11" y="6.21" width="2.1" height="11.44"/><rect class="cls-8" x="326.11" y="17.64" width="2.1" height="11.44"/><rect class="cls-8" x="326.11" y="29.08" width="2.1" height="11.44"/><rect class="cls-7" x="315.71" y="55.86" width="10.4" height="11.44"/><rect class="cls-7" x="315.71" y="67.3" width="10.4" height="11.44"/><rect class="cls-7" x="315.71" y="78.73" width="10.4" height="11.44"/><rect class="cls-8" x="326.11" y="55.86" width="2.1" height="11.44"/><rect class="cls-8" x="326.11" y="67.3" width="2.1" height="11.44"/><rect class="cls-8" x="326.11" y="78.73" width="2.1" height="11.44"/><rect class="cls-7" x="333.16" y="6.21" width="10.4" height="11.44"/><rect class="cls-7" x="333.16" y="17.64" width="10.4" height="11.44"/><rect class="cls-7" x="333.16" y="29.08" width="10.4" height="11.44"/><rect class="cls-8" x="343.56" y="6.21" width="2.09" height="11.44"/><rect class="cls-8" x="343.56" y="17.64" width="2.09" height="11.44"/><rect class="cls-8" x="343.56" y="29.08" width="2.09" height="11.44"/><rect class="cls-7" x="333.16" y="55.86" width="10.4" height="11.44"/><rect class="cls-7" x="333.16" y="67.3" width="10.4" height="11.44"/><rect class="cls-7" x="333.16" y="78.73" width="10.4" height="11.44"/><rect class="cls-8" x="343.56" y="55.86" width="2.09" height="11.44"/><rect class="cls-8" x="343.56" y="67.3" width="2.09" height="11.44"/><rect class="cls-8" x="343.56" y="78.73" width="2.09" height="11.44"/><rect class="cls-7" x="350.61" y="6.21" width="10.4" height="11.44"/><rect class="cls-7" x="350.61" y="17.64" width="10.4" height="11.44"/><rect class="cls-7" x="350.61" y="29.08" width="10.4" height="11.44"/><rect class="cls-8" x="361.01" y="6.21" width="2.09" height="11.44"/><rect class="cls-8" x="361.01" y="17.64" width="2.09" height="11.44"/><rect class="cls-8" x="361.01" y="29.08" width="2.09" height="11.44"/><rect class="cls-9" x="150.32" y="7.78" width="13.16" height="15.38"/><rect class="cls-9" x="150.32" y="23.75" width="13.16" height="15.39"/><rect class="cls-10" x="163.16" y="7.78" width="2.79" height="15.38"/><rect class="cls-10" x="163.16" y="23.75" width="2.79" height="15.39"/><rect class="cls-9" x="150.32" y="57.34" width="13.16" height="15.38"/><rect class="cls-9" x="150.32" y="73.31" width="13.16" height="15.39"/><rect class="cls-10" x="163.16" y="57.34" width="2.79" height="15.38"/><rect class="cls-10" x="163.16" y="73.31" width="2.79" height="15.39"/><rect class="cls-9" x="185.36" y="7.78" width="13.16" height="15.38"/><rect class="cls-9" x="185.36" y="23.75" width="13.16" height="15.39"/><rect class="cls-10" x="198.21" y="7.78" width="2.79" height="15.38"/><rect class="cls-10" x="198.21" y="23.75" width="2.79" height="15.39"/><rect class="cls-9" x="185.36" y="57.34" width="13.16" height="15.38"/><rect class="cls-9" x="185.36" y="73.31" width="13.16" height="15.39"/><rect class="cls-10" x="198.21" y="57.34" width="2.79" height="15.38"/><rect class="cls-10" x="198.21" y="73.31" width="2.79" height="15.39"/><rect class="cls-9" x="220.41" y="7.78" width="13.16" height="15.38"/><rect class="cls-9" x="220.41" y="23.75" width="13.16" height="15.39"/><rect class="cls-10" x="233.25" y="7.78" width="2.79" height="15.38"/><rect class="cls-10" x="233.25" y="23.75" width="2.79" height="15.39"/><rect class="cls-9" x="220.41" y="57.34" width="13.16" height="15.38"/><rect class="cls-9" x="220.41" y="73.31" width="13.16" height="15.39"/><rect class="cls-10" x="233.25" y="57.34" width="2.79" height="15.38"/><rect class="cls-10" x="233.25" y="73.31" width="2.79" height="15.39"/><path class="cls-11" d="M744.34,556.7v-4.89a2.47,2.47,0,0,0-2.47-2.47H724.48a2.47,2.47,0,0,0-2.47,2.47v4.89" transform="translate(-473.22 -465.36)"/><path class="cls-11" d="M744.34,469v4.89a2.47,2.47,0,0,1-2.47,2.47H724.48a2.47,2.47,0,0,1-2.47-2.47V469" transform="translate(-473.22 -465.36)"/><rect class="cls-3" x="464.84" y="29.26" width="30.96" height="36.47"/><rect class="cls-3" x="448.1" y="65.73" width="23.52" height="17.72"/><line class="cls-3" x1="121.63" y1="20.76" x2="121.63" y2="6.02"/><line class="cls-12" x1="291.22" y1="94.99" x2="291.22" y2="90.17"/><line class="cls-12" x1="233.25" y1="94.99" x2="233.25" y2="88.69"/><line class="cls-12" x1="198.21" y1="94.99" x2="198.21" y2="88.69"/><line class="cls-12" x1="163.16" y1="94.99" x2="163.16" y2="88.69"/><rect class="cls-13" x="301.22" y="78.23" width="7.45" height="1"/><rect class="cls-13" x="301.22" y="66.8" width="7.45" height="1"/><rect class="cls-13" x="318.67" y="78.23" width="7.45" height="1"/><rect class="cls-13" x="318.67" y="66.8" width="7.45" height="1"/><rect class="cls-13" x="318.67" y="78.23" width="7.45" height="1"/><rect class="cls-13" x="318.67" y="66.8" width="7.45" height="1"/><rect class="cls-13" x="336.12" y="78.23" width="7.45" height="1"/><rect class="cls-13" x="336.12" y="89.67" width="7.45" height="1"/><rect class="cls-13" x="318.67" y="89.67" width="7.45" height="1"/><rect class="cls-13" x="301.22" y="89.67" width="7.45" height="1"/><rect class="cls-13" x="336.12" y="66.8" width="7.45" height="1"/><rect class="cls-13" x="318.67" y="28.58" width="7.45" height="1"/><rect class="cls-13" x="336.12" y="28.58" width="7.45" height="1"/><rect class="cls-13" x="318.67" y="17.14" width="7.45" height="1"/><rect class="cls-13" x="301.22" y="28.58" width="7.45" height="1"/><rect class="cls-13" x="301.22" y="17.14" width="7.45" height="1"/><rect class="cls-13" x="301.22" y="5.67" width="7.45" height="1"/><rect class="cls-13" x="318.67" y="5.67" width="7.45" height="1"/><rect class="cls-13" x="336.12" y="5.67" width="7.45" height="1"/><rect class="cls-13" x="353.56" y="5.67" width="7.45" height="1"/><rect class="cls-13" x="336.12" y="17.14" width="7.45" height="1"/><rect class="cls-13" x="353.56" y="28.58" width="7.45" height="1"/><rect class="cls-13" x="353.56" y="17.14" width="7.45" height="1"/></svg>