<?xml version="1.0" encoding="utf-8"?>
<!-- Generator: Adobe Illustrator 21.0.0, SVG Export Plug-In . SVG Version: 6.00 Build 0)  -->
<svg version="1.1" id="Слой_1" xmlns="http://www.w3.org/2000/svg" xmlns:xlink="http://www.w3.org/1999/xlink" x="0px" y="0px"
	 viewBox="0 0 310 256" style="enable-background:new 0 0 310 256;" xml:space="preserve">
<style type="text/css">
	.st0{fill:#FFFFFF;}
	.st1{fill:#E2E2E2;}
</style>
<g>
	<path class="st0" d="M23.5,98c3.6-0.5,7.9-1,12.6-1c8.5,0,14.6,2,18.6,5.7c4.1,3.7,6.5,9,6.5,16.5c0,7.5-2.3,13.6-6.6,17.8
		c-4.3,4.3-11.4,6.6-20.3,6.6c-4.2,0-7.8-0.2-10.7-0.5V98z M29.5,138.5c1.5,0.3,3.7,0.3,6,0.3c12.6,0,19.5-7.1,19.5-19.4
		c0.1-10.8-6.1-17.7-18.6-17.7c-3.1,0-5.4,0.3-6.9,0.6V138.5z"/>
	<path class="st0" d="M92.6,121.7H74.8v16.5h19.9v5H68.8V97.4h24.7v5H74.8v14.5h17.8V121.7z"/>
	<path class="st0" d="M101.5,136c2.7,1.6,6.5,3,10.6,3c6.1,0,9.6-3.2,9.6-7.8c0-4.3-2.4-6.7-8.6-9.1c-7.5-2.7-12.1-6.5-12.1-13
		c0-7.1,5.9-12.4,14.8-12.4c4.7,0,8.1,1.1,10.1,2.2l-1.6,4.8c-1.5-0.8-4.6-2.2-8.7-2.2c-6.3,0-8.6,3.7-8.6,6.9
		c0,4.3,2.8,6.4,9.1,8.8c7.8,3,11.7,6.7,11.7,13.5c0,7.1-5.2,13.2-16,13.2c-4.4,0-9.2-1.3-11.7-2.9L101.5,136z"/>
	<path class="st0" d="M141.7,97.4v45.8h-5.9V97.4H141.7z"/>
	<path class="st0" d="M186.9,141.2c-2.7,1-7.9,2.5-14.1,2.5c-6.9,0-12.6-1.8-17.1-6.1c-3.9-3.8-6.4-9.9-6.4-17.1
		c0.1-13.7,9.5-23.7,24.8-23.7c5.3,0,9.5,1.2,11.4,2.1l-1.4,4.8c-2.4-1.1-5.5-2-10.1-2c-11.2,0-18.4,6.9-18.4,18.4
		c0,11.6,7,18.5,17.7,18.5c3.9,0,6.5-0.5,7.9-1.2v-13.7h-9.3v-4.8h15.1V141.2z"/>
	<path class="st0" d="M196,143.2V97.4h6.5l14.7,23.2c3.4,5.4,6.1,10.2,8.2,14.9l0.1-0.1c-0.5-6.1-0.7-11.7-0.7-18.8V97.4h5.6v45.8
		h-6l-14.6-23.3c-3.2-5.1-6.3-10.3-8.6-15.3l-0.2,0.1c0.3,5.8,0.5,11.3,0.5,18.9v19.6H196z"/>
</g>
<g>
	<path class="st0" d="M238.7,252v-19.5h5.1v13.3h9.3v-12.4h5.1v12.4h14.3v6.2H238.7z"/>
	<path class="st0" d="M239.1,226.6c-0.4-2.3-0.7-5.8-0.7-9.3c0-4.9,0.8-8.2,2.7-10.4c1.6-1.9,3.9-2.9,6.8-2.9c4.4,0,7.3,3,8.5,6.1
		h0.1c0.9-2.4,3.2-3.9,6.5-4.7c4.2-1.1,8.1-2,9.4-2.7v6.4c-1,0.5-3.8,1.3-8,2.2c-4.4,1-5.8,2.6-5.9,6.1v3.1h13.9v6.1H239.1z
		 M254,220.5v-3.7c0-4.2-2.2-6.8-5.6-6.8c-3.7,0-5.4,2.6-5.4,6.6c0,2,0.1,3.2,0.3,3.8H254z"/>
	<path class="st0" d="M255.2,168.2c11.3,0,17.8,6.9,17.8,16.2c0,9.5-7.2,15.5-17.2,15.5c-10.4,0-17.7-6.5-17.7-16
		C238.1,174,245.6,168.2,255.2,168.2z M255.7,193.4c6.9,0,12.3-3.5,12.3-9.4c0-6-5.5-9.3-12.6-9.3c-6.4,0-12.4,3.2-12.4,9.3
		C243.1,190.1,248.7,193.4,255.7,193.4z"/>
	<path class="st0" d="M272.4,162.9h-33.7v-7l14.5-8.7c3.8-2.3,7.7-4.2,11.3-5.8v-0.1c-4.5,0.4-8.9,0.6-14,0.6h-11.8v-5.7h33.7v6.4
		l-14.8,8.8c-3.7,2.2-7.9,4.4-11.7,6.1l0.1,0.2c4.4-0.2,8.8-0.3,14.4-0.3h12.1V162.9z"/>
	<path class="st0" d="M243.8,122.7v9.6h-5.2v-25.5h5.2v9.7h28.6v6.2H243.8z"/>
	<path class="st0" d="M256.9,95h4.3v12.8h-4.3V95z"/>
	<path class="st0" d="M257.4,71.1v12.7h9.9V69.6h5.1v20.4h-33.7V70.3h5.1v13.5h8.7V71.1H257.4z"/>
	<path class="st0" d="M272.4,64.2h-33.7v-7l14.5-8.7c3.8-2.3,7.7-4.2,11.3-5.8v-0.1c-4.5,0.4-8.9,0.6-14,0.6h-11.8v-5.7h33.7v6.4
		l-14.8,8.8c-3.7,2.2-7.9,4.4-11.7,6.1l0.1,0.2c4.4-0.2,8.8-0.3,14.4-0.3h12.1V64.2z"/>
	<path class="st0" d="M239.1,30.4c-0.5-2.7-0.7-6.2-0.7-9.8c0-6.3,1.3-10.7,3.9-13.8c2.6-3.2,6.7-5.2,12.4-5.2c6,0,10.5,2,13.4,5.2
		c3.1,3.4,4.6,8.7,4.6,15.3c0,3.6-0.2,6.3-0.5,8.3H239.1z M267.7,24.2c0.1-0.8,0.1-2.2,0.1-3.4c0-8-4.4-12.8-12.9-12.8
		c-7.5,0-11.7,4.3-11.7,12c0,2,0.1,3.4,0.4,4.2H267.7z"/>
</g>
<g>
	<path class="st1" d="M18.6,143.1l-15.5,3.8v-3l7-1.5c1.9-0.4,3.9-0.8,5.4-1v0c-1.6-0.3-3.5-0.7-5.4-1.1l-7-1.7v-3l7.1-1.5
		c1.8-0.4,3.6-0.7,5.2-0.9v0c-1.7-0.3-3.5-0.6-5.4-1.1l-7-1.6v-2.9l15.5,4.2v3l-7.3,1.6c-1.8,0.4-3.2,0.7-4.9,0.9v0
		c1.7,0.3,3.2,0.6,4.9,1l7.3,1.8V143.1z"/>
	<path class="st1" d="M13.8,124.6c2-0.1,2.9-1.7,2.9-3.4c0-1.3-0.2-2.3-0.5-3.1l2-0.4c0.4,1,0.7,2.3,0.7,3.9c0,3.6-2.2,5.8-5.7,5.8
		c-3.1,0-6-1.9-6-5.5c0-3.6,3-4.8,5.5-4.8c0.5,0,0.9,0,1.2,0.1V124.6z M11.8,119.7c-1,0-2.7,0.4-2.7,2.3c0,1.7,1.6,2.5,2.7,2.6
		V119.7z"/>
	<path class="st1" d="M18.6,114.8c-0.8,0-2-0.1-3.2-0.1H2.2v-2.8h6.7v0c-1.1-0.7-1.8-1.9-1.8-3.6c0-2.7,2.3-4.7,5.7-4.7
		c4,0,6,2.6,6,5.1c0,1.4-0.6,2.7-1.9,3.5v0l1.7,0.1V114.8z M13.9,111.9c0.2,0,0.5,0,0.7-0.1c1.1-0.3,2-1.3,2-2.5
		c0-1.8-1.4-2.9-3.7-2.9c-2,0-3.6,0.9-3.6,2.8c0,1.1,0.8,2.2,2.1,2.5c0.2,0,0.5,0.1,0.7,0.1H13.9z"/>
</g>
<g>
	<path class="st1" d="M135.9,64.6v20.2l2.2,0.1l-0.2,9.2h-3.3l-0.2-5.8H120l-0.2,5.8h-3.3l-0.2-9.2l1.9-0.1c0.9-1.6,1.8-3.4,2.3-5.2
		c0.7-2.5,1-5.4,1-8.8v-6.2H135.9z M125.4,71.8c0,3.2-0.4,6.1-1.1,8.6c-0.5,1.5-1.1,3-1.8,4.2h9V68.1h-6.1V71.8z"/>
	<path class="st1" d="M145.4,71.1v6.1c0,2.7-0.1,4.5-0.2,6.9h0.1c0.9-2,1.4-3.3,2.3-5l4.2-8h5.2v17h-4.1v-6.1c0-2.7,0.1-4,0.3-7.2
		H153c-0.8,2-1.4,3.3-2.2,4.9c-1.3,2.5-2.9,5.6-4.3,8.4h-5.1v-17H145.4z"/>
	<path class="st1" d="M163.1,78h2.1c2.3,0,3.7-0.9,3.7-2.2s-1.2-2.1-3.1-2.1c-1.4,0-3,0.5-4.2,1.2l-0.9-2.6c1.9-1.2,4.2-1.7,6.4-1.7
		c2.9,0,6.4,1.1,6.4,4.5c0,2.2-2,3.4-3.7,3.9v0.1c2.3,0.2,4.5,1.6,4.5,4.1c0,4-4.4,5.2-7.9,5.2c-2.2,0-4.5-0.6-6.2-1.5l1-2.7
		c1.2,0.6,3,1.2,4.7,1.2c2.4,0,3.7-1,3.7-2.3c0-1.8-1.9-2.3-4.3-2.3h-2.1V78z"/>
	<path class="st1" d="M187.4,88.1l-0.3-1.9H187c-1,1.3-2.8,2.3-5,2.3c-3.4,0-5.4-2.5-5.4-5.1c0-4.3,3.8-6.5,10.1-6.4v-0.3
		c0-1.1-0.5-3-3.5-3c-1.7,0-3.4,0.5-4.6,1.3l-0.8-2.8c1.3-0.8,3.5-1.5,6.2-1.5c5.5,0,7,3.5,7,7.2V84c0,1.5,0.1,3,0.2,4.1H187.4z
		 M186.9,79.8c-3-0.1-6,0.6-6,3.2c0,1.7,1.1,2.5,2.5,2.5c1.7,0,3-1.1,3.4-2.3c0.1-0.3,0.1-0.7,0.1-0.9V79.8z"/>
	<path class="st1" d="M199.7,71.1v6.1c0,2.7-0.1,4.5-0.2,6.9h0.1c0.9-2,1.4-3.3,2.3-5l4.2-8h5.2v17h-4.1v-6.1c0-2.7,0.1-4,0.3-7.2
		h-0.1c-0.8,2-1.4,3.3-2.2,4.9c-1.3,2.5-2.9,5.6-4.3,8.4h-5.1v-17H199.7z M201.5,64.1c0.1,1.5,0.7,2.6,1.9,2.6c1.3,0,1.9-1.1,2-2.6
		h2.8c-0.2,3-2.1,4.7-4.9,4.7c-3.2,0-4.6-1.9-4.7-4.7H201.5z"/>
	<path class="st1" d="M220.1,71.1v6.5h6.6v-6.5h4.3v17h-4.3V81h-6.6v7.2h-4.3v-17H220.1z"/>
</g>
<g>
	<path class="st1" d="M281.7,191.6c-0.3-1.7-0.4-3.9-0.4-6.3c0-4,0.8-6.8,2.5-8.8c1.7-2.1,4.3-3.4,7.9-3.4c3.8,0,6.7,1.3,8.6,3.4
		c2,2.1,2.9,5.6,2.9,9.8c0,2.3-0.1,4-0.3,5.3H281.7z M300,187.7c0.1-0.5,0.1-1.4,0.1-2.2c0-5.1-2.8-8.2-8.3-8.2
		c-4.8,0-7.5,2.7-7.5,7.6c0,1.2,0.1,2.1,0.2,2.7H300z"/>
	<path class="st1" d="M296.3,167.2c2.8-0.1,4-2.3,4-4.8c0-1.8-0.3-3.1-0.7-4.3l2.7-0.6c0.5,1.3,1,3.2,1,5.4c0,5.1-3.1,8-7.9,8
		c-4.3,0-8.4-2.6-8.4-7.6c0-5.1,4.2-6.7,7.6-6.7c0.7,0,1.3,0.1,1.7,0.1V167.2z M293.6,160.3c-1.4,0-3.8,0.6-3.8,3.2
		c0,2.4,2.2,3.5,3.8,3.6V160.3z"/>
	<path class="st1" d="M287.4,151l7.9-2.5c1.4-0.4,2.6-0.8,3.9-1.1v-0.1c-1.3-0.3-2.5-0.6-3.9-1.1l-7.9-2.5v-4.2l15.6,6v3.9
		l-15.6,5.8V151z"/>
	<path class="st1" d="M296.3,134.9c2.8-0.1,4-2.3,4-4.8c0-1.8-0.3-3.1-0.7-4.3l2.7-0.6c0.5,1.3,1,3.2,1,5.4c0,5.1-3.1,8-7.9,8
		c-4.3,0-8.4-2.6-8.4-7.6c0-5.1,4.2-6.7,7.6-6.7c0.7,0,1.3,0.1,1.7,0.1V134.9z M293.6,128c-1.4,0-3.8,0.6-3.8,3.2
		c0,2.4,2.2,3.5,3.8,3.6V128z"/>
	<path class="st1" d="M280.3,121.2v-4H303v4H280.3z"/>
	<path class="st1" d="M295.1,98.1c5.7,0,8.3,4,8.3,8c0,4.4-3,7.8-8,7.8c-5.1,0-8.3-3.4-8.3-8.1C287.1,101.2,290.3,98.1,295.1,98.1z
		 M295.2,109.9c3,0,5.3-1.5,5.3-3.9c0-2.2-2.2-3.8-5.3-3.8c-2.4,0-5.2,1.1-5.2,3.8C289.9,108.8,292.6,109.9,295.2,109.9z"/>
	<path class="st1" d="M292.6,94.9c-2,0-3.7,0.1-5.2,0.1v-3.5l2.4-0.2v-0.1c-1.8-1.2-2.8-3-2.8-5.3c0-3.6,3.1-6.6,7.9-6.6
		c5.6,0,8.4,3.6,8.4,7.1c0,2-0.8,3.6-2.1,4.4V91h8.1v3.9H292.6z M296.5,91c0.4,0,0.7,0,1.1-0.1c1.6-0.4,2.8-1.8,2.8-3.5
		c0-2.5-2.1-4-5.2-4c-2.8,0-5,1.3-5,3.9c0,1.6,1.2,3.1,2.9,3.5c0.3,0.1,0.7,0.2,1,0.2H296.5z"/>
</g>
</svg>
