<?xml version="1.0" encoding="utf-8"?>
<!-- Generator: Adobe Illustrator 21.0.0, SVG Export Plug-In . SVG Version: 6.00 Build 0)  -->
<svg version="1.1" id="Слой_1" xmlns="http://www.w3.org/2000/svg" xmlns:xlink="http://www.w3.org/1999/xlink" x="0px" y="0px"
	 viewBox="0 0 257.1 96.7" style="enable-background:new 0 0 257.1 96.7;" xml:space="preserve">
<style type="text/css">
	.st0{fill:#39434C;}
	.st1{fill:#CFCFCF;}
</style>
<g>
	<g>
		<path class="st0" d="M0,61.8V0h4.4v46.3l28.1-27.7h5.8L18.4,37.8l20.4,24.1h-5.5L15.4,40.7l-11,10.6v10.5H0z"/>
		<path class="st0" d="M46,49.1c0-4.4,1.8-7.9,5.4-10.3c3.6-2.5,8.4-3.7,14.4-3.7c5.2,0,10.2,0.6,15,1.9v-1.9c0-4.3-1.3-7.6-3.9-9.8
			c-2.6-2.3-6.3-3.4-11-3.4c-4.7,0-9.4,1.2-14.2,3.5l-1.6-3.6c5.6-2.5,11-3.7,16-3.7c6.2,0,11,1.6,14.3,4.8c3.1,2.9,4.6,7,4.6,12.2
			v26.9h-4.3v-7.2c-1.8,2.4-4.1,4.3-7,5.9c-2.9,1.6-6.3,2.3-10.3,2.3c-2.2,0-4.3-0.3-6.3-0.9c-2.1-0.6-3.9-1.4-5.6-2.5
			c-1.7-1.1-3-2.5-4.1-4.3C46.5,53.3,46,51.3,46,49.1z M50.6,49c0,3,1.3,5.4,3.8,7.2c2.6,1.8,5.7,2.7,9.3,2.7
			c4.7,0,8.7-1.2,12.1-3.7s5-5.7,5-9.5v-4.9c-5.2-1.3-10.3-1.9-15.4-1.9c-4.7,0-8.4,0.9-11,2.8S50.6,45.9,50.6,49z"/>
		<path class="st0" d="M100.7,75.4V18.6h4.4v9.6c4.9-7.1,11.1-10.7,18.6-10.7c2.7,0,5.4,0.5,8,1.6c2.6,1,5,2.5,7,4.4s3.8,4.3,5,7.2
			c1.3,2.9,1.9,6.1,1.9,9.5c0,3.4-0.6,6.5-1.9,9.4c-1.3,2.9-2.9,5.3-5,7.2s-4.4,3.4-7,4.4c-2.6,1.1-5.3,1.6-8,1.6
			c-7.7,0-13.9-3.4-18.6-10.3v22.9H100.7z M104.8,40.3c0,3.6,0.9,6.8,2.7,9.7c1.8,2.9,4.1,5.1,6.9,6.6c2.8,1.5,5.8,2.3,8.9,2.3
			c5.1,0,9.3-1.7,12.7-5c3.4-3.3,5.1-7.9,5.1-13.6c0-2.8-0.5-5.3-1.4-7.7c-1-2.4-2.2-4.3-3.9-5.9s-3.5-2.8-5.7-3.7
			c-2.2-0.9-4.4-1.3-6.8-1.3c-2.3,0-4.6,0.5-6.9,1.4s-4.2,2.2-5.9,3.8c-1.7,1.6-3.1,3.6-4.1,6C105.3,35.1,104.8,37.6,104.8,40.3z"/>
		<path class="st0" d="M159.3,75.4V18.6h4.4v9.6c4.9-7.1,11.1-10.7,18.6-10.7c2.7,0,5.4,0.5,8,1.6s5,2.5,7,4.4s3.8,4.3,5,7.2
			c1.3,2.9,1.9,6.1,1.9,9.5c0,3.4-0.6,6.5-1.9,9.4c-1.3,2.9-2.9,5.3-5,7.2s-4.4,3.4-7,4.4s-5.3,1.6-8,1.6c-7.7,0-13.9-3.4-18.6-10.3
			v22.9H159.3z M163.4,40.3c0,3.6,0.9,6.8,2.7,9.7s4.1,5.1,6.9,6.6c2.8,1.5,5.8,2.3,8.9,2.3c5.1,0,9.3-1.7,12.7-5
			c3.4-3.3,5.1-7.9,5.1-13.6c0-2.8-0.5-5.3-1.4-7.7c-1-2.4-2.2-4.3-3.9-5.9c-1.6-1.6-3.5-2.8-5.7-3.7c-2.2-0.9-4.4-1.3-6.8-1.3
			c-2.3,0-4.6,0.5-6.9,1.4c-2.2,0.9-4.2,2.2-5.9,3.8s-3.1,3.6-4.1,6S163.4,37.6,163.4,40.3z"/>
		<path class="st0" d="M214.8,40.1c0-3.1,0.5-6,1.6-8.8c1.1-2.8,2.6-5.2,4.5-7.2s4.2-3.6,6.8-4.8c2.7-1.2,5.5-1.8,8.5-1.8
			c4.1,0,7.8,1,11,3s5.6,4.7,7.3,8.1c1.7,3.4,2.5,7.2,2.5,11.5c0,0.7,0,1.3-0.1,1.7h-37.6c0.4,5.2,2.3,9.3,5.7,12.4
			c3.4,3.1,7.5,4.6,12.1,4.6c6,0,11.1-2.2,15.5-6.7l3,2.5c-2.5,2.6-5.3,4.6-8.2,6c-2.9,1.4-6.4,2.1-10.5,2.1c-2.9,0-5.8-0.6-8.5-1.7
			c-2.7-1.1-5.1-2.6-7.1-4.6c-2-1.9-3.6-4.3-4.8-7.2C215.4,46.6,214.8,43.5,214.8,40.1z M219.4,38.2h33c-0.1-2.2-0.6-4.3-1.3-6.3
			c-0.8-2-1.8-3.7-3.1-5.3c-1.3-1.6-3-2.8-5-3.8s-4.3-1.4-6.8-1.4c-4.5,0-8.2,1.6-11.4,4.8S219.8,33.4,219.4,38.2z"/>
	</g>
</g>
<g>
	<g>
		<path class="st1" d="M82.2,96.7l-1.1,0l0-1.6l-1.2,0c-1.4,0-2.5-0.3-3.2-0.9c-0.6-0.6-1-1.3-1-2.3c0-0.6,0.1-1.1,0.3-1.6l1.1,0
			C77,91,76.9,91.5,76.9,92c0,0.7,0.3,1.3,0.8,1.6c0.5,0.4,1.3,0.5,2.3,0.5l1.2,0l0-3.8l1.1,0l0,3.8l36.7,0l4,1l-40.7,0L82.2,96.7z"
			/>
		<path class="st1" d="M87.2,88.9c-0.8,0-1.7-0.1-2.4-0.4c-0.8-0.3-1.5-0.7-2-1.1c-0.6-0.5-1-1.1-1.4-1.8c-0.3-0.7-0.5-1.4-0.5-2.2
			c0-1,0.3-2,0.9-2.8c0.6-0.9,1.3-1.5,2.3-2c1-0.5,2-0.7,3.2-0.7c1.1,0,2.2,0.2,3.2,0.7c1,0.5,1.8,1.1,2.3,2
			c0.6,0.8,0.9,1.8,0.9,2.8c0,0.8-0.2,1.5-0.5,2.2c-0.3,0.7-0.8,1.3-1.4,1.8c-0.6,0.5-1.3,0.9-2,1.1C88.9,88.7,88.1,88.9,87.2,88.9z
			 M87.2,87.8c1.5,0,2.7-0.4,3.7-1.3c1-0.9,1.5-1.9,1.5-3.1c0-0.8-0.2-1.5-0.7-2.2c-0.5-0.7-1.1-1.2-1.9-1.6
			c-0.8-0.4-1.7-0.6-2.6-0.6c-1.5,0-2.7,0.4-3.7,1.3c-1,0.9-1.5,1.9-1.5,3.1c0,0.8,0.2,1.5,0.7,2.2c0.5,0.7,1.1,1.2,1.9,1.6
			C85.4,87.6,86.3,87.8,87.2,87.8z"/>
		<path class="st1" d="M93.3,74.6l-12.2,0l0-1l3.4,0c-1.1-0.4-2-1.1-2.7-1.9c-0.6-0.8-1-1.7-1-2.6c0-0.1,0-0.1,0-0.2l1.3,0V69
			c0,0.6,0.1,1.2,0.4,1.8c0.3,0.6,0.7,1,1.2,1.5c0.5,0.4,1.1,0.8,1.9,1c0.8,0.2,1.7,0.4,2.6,0.4l5,0L93.3,74.6z"/>
	</g>
</g>
<g>
	<g>
		<path class="st1" d="M115.3,87.9c0-1.3,0.3-2.5,1-3.6c0.7-1.1,1.6-2,2.7-2.6c1.1-0.7,2.4-1,3.8-1c2.3,0,4.2,0.9,5.8,2.6l-1,0.9
			c-0.7-0.7-1.5-1.3-2.3-1.7c-0.8-0.4-1.6-0.6-2.6-0.6c-1.1,0-2.1,0.3-3,0.8c-0.9,0.5-1.6,1.3-2.2,2.2c-0.5,0.9-0.8,1.9-0.8,3
			c0,1.7,0.6,3.1,1.8,4.2c1.2,1.2,2.6,1.7,4.3,1.7c1.8,0,3.4-0.8,4.9-2.4l1,0.9c-0.8,0.9-1.7,1.5-2.6,2c-1,0.5-2.1,0.7-3.3,0.7
			c-1.4,0-2.7-0.3-3.8-1c-1.1-0.7-2-1.5-2.7-2.6C115.6,90.4,115.3,89.2,115.3,87.9z"/>
		<path class="st1" d="M132.7,94.8V81h1.4v3.9c0.6-1.3,1.5-2.3,2.6-3.1c1.1-0.7,2.3-1.1,3.6-1.1c0.1,0,0.2,0,0.3,0v1.5h-0.2
			c-0.9,0-1.7,0.2-2.4,0.5c-0.8,0.3-1.4,0.7-2,1.3c-0.6,0.6-1,1.3-1.4,2.2c-0.3,0.9-0.5,1.9-0.5,3v5.7H132.7z"/>
		<path class="st1" d="M143.2,87.8c0-1,0.2-1.9,0.5-2.8c0.4-0.9,0.8-1.7,1.4-2.3c0.6-0.6,1.3-1.2,2.2-1.5c0.9-0.4,1.8-0.6,2.8-0.6
			c1.3,0,2.5,0.3,3.6,1c1,0.6,1.8,1.5,2.4,2.6c0.5,1.1,0.8,2.3,0.8,3.7c0,0.2,0,0.4,0,0.5h-12.2c0.1,1.7,0.7,3,1.8,4
			c1.1,1,2.4,1.5,3.9,1.5c1.9,0,3.6-0.7,5-2.2l1,0.8c-0.8,0.8-1.7,1.5-2.7,1.9c-1,0.5-2.1,0.7-3.4,0.7c-1,0-1.9-0.2-2.7-0.5
			c-0.9-0.4-1.6-0.8-2.3-1.5c-0.7-0.6-1.2-1.4-1.6-2.3C143.4,89.9,143.2,88.9,143.2,87.8z M144.7,87.2h10.7c0-0.7-0.2-1.4-0.4-2
			c-0.2-0.6-0.6-1.2-1-1.7c-0.4-0.5-1-0.9-1.6-1.2c-0.7-0.3-1.4-0.4-2.2-0.4c-1.4,0-2.7,0.5-3.7,1.5
			C145.4,84.4,144.8,85.7,144.7,87.2z"/>
		<path class="st1" d="M159.8,90.7c0-1.4,0.6-2.5,1.8-3.3c1.2-0.8,2.7-1.2,4.7-1.2c1.7,0,3.3,0.2,4.9,0.6v-0.6
			c0-1.4-0.4-2.4-1.3-3.1c-0.8-0.7-2-1.1-3.6-1.1c-1.5,0-3,0.4-4.6,1.1l-0.5-1.2c1.8-0.8,3.6-1.2,5.2-1.2c2,0,3.6,0.5,4.6,1.5
			c1,0.9,1.5,2.2,1.5,3.9v8.6h-1.4v-2.3c-0.6,0.8-1.3,1.4-2.3,1.9s-2,0.7-3.3,0.7c-0.7,0-1.4-0.1-2-0.3c-0.7-0.2-1.3-0.5-1.8-0.8
			c-0.5-0.4-1-0.8-1.3-1.4C160,92.1,159.8,91.4,159.8,90.7z M161.3,90.7c0,1,0.4,1.7,1.2,2.3c0.8,0.6,1.8,0.9,3,0.9
			c1.5,0,2.8-0.4,3.9-1.2c1.1-0.8,1.6-1.8,1.6-3.1V88c-1.7-0.4-3.3-0.6-5-0.6c-1.5,0-2.7,0.3-3.6,0.9
			C161.7,88.9,161.3,89.7,161.3,90.7z"/>
		<path class="st1" d="M176.2,82.2V81h2.1v-4.4h1.4V81h5.2v1.2h-5.2v8.9c0,1.8,1,2.7,2.9,2.7c0.7,0,1.4-0.2,2.2-0.5v1.3
			c-0.7,0.3-1.5,0.5-2.4,0.5c-1.2,0-2.2-0.3-3-1c-0.8-0.6-1.1-1.6-1.1-2.8v-9.1H176.2z"/>
		<path class="st1" d="M189,77.3v-1.8h1.7v1.8H189z M189.2,94.8V81h1.4v13.8H189.2z"/>
		<path class="st1" d="M194.7,81h1.6l5.5,12.3l5.6-12.3h1.6l-6.6,13.9h-1.2L194.7,81z"/>
		<path class="st1" d="M211.9,87.8c0-1,0.2-1.9,0.5-2.8c0.4-0.9,0.8-1.7,1.4-2.3c0.6-0.6,1.3-1.2,2.2-1.5c0.9-0.4,1.8-0.6,2.8-0.6
			c1.3,0,2.5,0.3,3.6,1c1,0.6,1.8,1.5,2.4,2.6c0.5,1.1,0.8,2.3,0.8,3.7c0,0.2,0,0.4,0,0.5h-12.2c0.1,1.7,0.7,3,1.8,4
			c1.1,1,2.4,1.5,3.9,1.5c1.9,0,3.6-0.7,5-2.2l1,0.8c-0.8,0.8-1.7,1.5-2.7,1.9c-1,0.5-2.1,0.7-3.4,0.7c-1,0-1.9-0.2-2.7-0.5
			c-0.9-0.4-1.6-0.8-2.3-1.5c-0.7-0.6-1.2-1.4-1.6-2.3C212.1,89.9,211.9,88.9,211.9,87.8z M213.4,87.2H224c0-0.7-0.2-1.4-0.4-2
			c-0.2-0.6-0.6-1.2-1-1.7c-0.4-0.5-1-0.9-1.6-1.2c-0.7-0.3-1.4-0.4-2.2-0.4c-1.4,0-2.7,0.5-3.7,1.5
			C214.1,84.4,213.5,85.7,213.4,87.2z"/>
		<path class="st1" d="M228.4,93l0.8-1.1c1.7,1.2,3.4,1.8,5.3,1.8c1,0,1.9-0.2,2.5-0.7c0.7-0.5,1-1.1,1-1.9c0-0.3-0.1-0.6-0.2-0.9
			c-0.1-0.3-0.3-0.5-0.5-0.7c-0.2-0.2-0.5-0.3-0.9-0.5c-0.4-0.2-0.7-0.3-1-0.4c-0.3-0.1-0.7-0.2-1.2-0.4c-0.4-0.1-0.6-0.2-0.8-0.2
			c-0.2,0-0.4-0.1-0.8-0.2c-0.4-0.1-0.6-0.2-0.8-0.3c-0.2-0.1-0.4-0.2-0.7-0.3c-0.3-0.1-0.5-0.3-0.7-0.4c-0.1-0.1-0.3-0.3-0.5-0.5
			c-0.2-0.2-0.3-0.4-0.4-0.6c-0.1-0.2-0.2-0.4-0.2-0.6c-0.1-0.2-0.1-0.5-0.1-0.8c0-1.1,0.4-2,1.3-2.7c0.9-0.7,2.1-1.1,3.5-1.1
			c0.9,0,1.8,0.1,2.7,0.4c0.9,0.3,1.8,0.6,2.5,1.1l-0.7,1.1c-1.5-0.9-3-1.4-4.5-1.4c-1,0-1.8,0.2-2.4,0.7c-0.6,0.5-0.9,1.1-0.9,1.8
			c0,0.3,0,0.5,0.1,0.7c0.1,0.2,0.2,0.4,0.5,0.6c0.2,0.2,0.4,0.3,0.6,0.4c0.2,0.1,0.5,0.2,0.9,0.4c0.4,0.1,0.7,0.2,0.9,0.3
			s0.6,0.2,1,0.3c0.5,0.1,0.9,0.3,1.2,0.4c0.3,0.1,0.7,0.2,1.1,0.4c0.4,0.2,0.8,0.3,1,0.5c0.3,0.2,0.5,0.4,0.8,0.7
			c0.2,0.2,0.4,0.5,0.6,0.9s0.2,0.7,0.2,1.1c0,1.2-0.5,2.2-1.5,2.9c-1,0.7-2.2,1.1-3.6,1.1c-1.1,0-2.1-0.2-3.2-0.6
			C230.1,94.1,229.2,93.6,228.4,93z"/>
	</g>
</g>
</svg>
