<svg xmlns="http://www.w3.org/2000/svg" xmlns:xlink="http://www.w3.org/1999/xlink" viewBox="0 0 766.81 201"><defs><style>.cls-1,.cls-16,.cls-17{fill:#e5e5e5;}.cls-1,.cls-17,.cls-8,.cls-9{stroke:#8a8a8d;}.cls-1,.cls-17,.cls-4,.cls-5,.cls-6,.cls-7,.cls-8,.cls-9{stroke-miterlimit:10;}.cls-1{stroke-width:2.49px;}.cls-2{fill:url(#linear-gradient);}.cls-3{fill:url(#linear-gradient-2);}.cls-4,.cls-5,.cls-6,.cls-7{fill:#f2f2f2;stroke:#006da4;}.cls-4{stroke-width:0.83px;}.cls-5{stroke-width:0.83px;}.cls-6{stroke-width:0.87px;}.cls-7{stroke-width:0.84px;}.cls-8,.cls-9{fill:none;}.cls-8{stroke-width:0.52px;}.cls-9{stroke-width:0.49px;}.cls-10{font-size:17.52px;fill:#fff;font-family:MyriadPro-Regular, Myriad Pro;}.cls-11{letter-spacing:-0.07em;}.cls-12{letter-spacing:-0.01em;}.cls-13{letter-spacing:0.01em;}.cls-14{letter-spacing:-0.08em;}.cls-15{letter-spacing:-0.01em;}.cls-17{stroke-width:0.41px;}.cls-18{fill:#1b3e6f;}</style><linearGradient id="linear-gradient" x1="556.77" y1="96.86" x2="556.77" y2="146.16" gradientUnits="userSpaceOnUse"><stop offset="0" stop-color="#fff" stop-opacity="0"/><stop offset="1" stop-color="#cbc8c8"/></linearGradient><linearGradient id="linear-gradient-2" x1="555.77" y1="297.86" x2="555.77" y2="248.56" xlink:href="#linear-gradient"/></defs><title>737-2</title><path class="cls-1" d="M551.85,247.66H771.71c67.6,0,81.29-1.65,134.42-11,5.29-.92,22.24-15.51,22.24-39,0-26.4-16.95-38.11-22.24-39-53.13-9.31-66.82-11-134.41-11H551.85" transform="translate(-162.79 -96.86)"/><path class="cls-1" d="M552.5,147.71l-174.31,0c-31.68.1-61.41.27-108.58,8.33-8.3,1.42-17,3.07-25.61,4.85v73.54c8.64,1.78,17.31,3.43,25.61,4.85,47.17,8.07,76.9,8.24,108.58,8.33l174.31,0" transform="translate(-162.79 -96.86)"/><path class="cls-2" d="M650.4,146.13l-187.33,0c6.44-5.26,17.47-16.72,23.44-27.36,1.66-2.95,6.3-11.35,12.14-21.94H650.47Z" transform="translate(-162.79 -96.86)"/><path class="cls-3" d="M649.4,248.59l-187.33,0c6.44,5.26,17.47,16.72,23.44,27.36,1.66,2.95,6.3,11.35,12.14,21.94H649.47Z" transform="translate(-162.79 -96.86)"/><rect class="cls-4" x="246.21" y="54.14" width="98.5" height="36"/><rect class="cls-5" x="246.21" y="111.14" width="98.5" height="36"/><rect class="cls-6" x="398.71" y="54.14" width="261" height="36"/><rect class="cls-7" x="398.71" y="111.14" width="261" height="36"/><path class="cls-8" d="M878.1,156.67l-.72,5.68a2.66,2.66,0,0,1-2.94,2.47L856.33,162a2.86,2.86,0,0,1-2.21-3.28l.72-5.68" transform="translate(-162.79 -96.86)"/><path class="cls-8" d="M878.09,240.28l-.73-5.68a2.66,2.66,0,0,0-2.94-2.46L856.31,235a2.87,2.87,0,0,0-2.2,3.28l.73,5.68" transform="translate(-162.79 -96.86)"/><rect class="cls-9" x="721.27" y="70.74" width="30.44" height="58.83"/><text class="cls-10" transform="translate(430.21 77.76) scale(1.57 1)">S<tspan class="cls-11" x="8.64" y="0">T</tspan><tspan x="16.03" y="0">AN</tspan><tspan class="cls-12" x="38.28" y="0">D</tspan><tspan x="49.7" y="0">A</tspan><tspan class="cls-13" x="60.43" y="0">R</tspan><tspan x="70.01" y="0">T SE</tspan><tspan class="cls-14" x="99.69" y="0">A</tspan><tspan class="cls-15" x="109.06" y="0">T</tspan><tspan x="117.66" y="0">S</tspan></text><text class="cls-10" transform="translate(430.21 132.76) scale(1.57 1)">S<tspan class="cls-11" x="8.64" y="0">T</tspan><tspan x="16.03" y="0">AN</tspan><tspan class="cls-12" x="38.28" y="0">D</tspan><tspan x="49.7" y="0">A</tspan><tspan class="cls-13" x="60.43" y="0">R</tspan><tspan x="70.01" y="0">T SE</tspan><tspan class="cls-14" x="99.69" y="0">A</tspan><tspan class="cls-15" x="109.06" y="0">T</tspan><tspan x="117.66" y="0">S</tspan></text><line class="cls-9" x1="721.27" y1="58.89" x2="721.27" y2="142.2"/><line class="cls-16" x1="597.05" y1="50.83" x2="389.7" y2="50.85"/><line class="cls-16" x1="389.7" y1="196.11" x2="598.06" y2="196.13"/><path class="cls-17" d="M185.46,179.63c-12.32,5.9-22.46,9.13-22.46,17.87s10.14,12,22.46,17.87c10.5,5,34.44,13.16,58.54,19.63V160C219.9,166.47,196,174.61,185.46,179.63Z" transform="translate(-162.79 -96.86)"/><polygon class="cls-18" points="36.82 99.6 36.82 100.03 43.27 100.03 43.72 99.6 51.59 83 51.59 82.4 45.97 80.93 45.51 81.04 45.23 81.23 36.82 99.6"/><polygon class="cls-18" points="46.97 79.54 46.71 79.75 46.97 79.95 52.65 81.39 52.97 81.39 61.38 78.25 61.38 77.92 57 74.13 56.64 74.02 56.31 74.13 46.97 79.54"/><path class="cls-18" d="M221.45,170.88l3.95,3.69h.3s8.22-3,8.6-3.2.82-.37.84-.78,0-2.1,0-2.45-.46-.62-1.42-.49-11.48,2.52-11.83,2.59S221.23,170.67,221.45,170.88Z" transform="translate(-162.79 -96.86)"/><polygon class="cls-18" points="36.82 102.2 36.82 101.77 43.27 101.77 43.72 102.2 51.59 118.8 51.59 119.4 45.97 120.87 45.51 120.76 45.23 120.57 36.82 102.2"/><polygon class="cls-18" points="46.97 122.26 46.71 122.05 46.97 121.84 52.65 120.41 52.97 120.41 61.38 123.55 61.38 123.88 57 127.67 56.64 127.78 56.31 127.67 46.97 122.26"/><path class="cls-18" d="M221.45,224.64,225.4,221h.3s8.22,3,8.6,3.2.82.37.84.79,0,2.1,0,2.45-.46.62-1.42.49-11.48-2.52-11.83-2.59S221.23,224.86,221.45,224.64Z" transform="translate(-162.79 -96.86)"/></svg>