<svg id="Слой_1" data-name="Слой 1" xmlns="http://www.w3.org/2000/svg" xmlns:xlink="http://www.w3.org/1999/xlink" viewBox="0 0 1100 250"><defs><style>.cls-1{fill:none;stroke:#8a8a8d;stroke-miterlimit:10;stroke-width:0.38px;}.cls-2{fill:#8a8a8d;}.cls-3{fill:#cbc8c8;}.cls-4{fill:url(#Безымянный_градиент_8);}.cls-5{fill:url(#Безымянный_градиент_8-2);}</style><linearGradient id="Безымянный_градиент_8" x1="1093.45" y1="723.8" x2="1093.45" y2="665.65" gradientTransform="translate(-56.2 901.77)" gradientUnits="userSpaceOnUse"><stop offset="0" stop-color="#fff" stop-opacity="0"/><stop offset="1" stop-color="#cbc8c8"/></linearGradient><linearGradient id="Безымянный_градиент_8-2" x1="1093.45" y1="1224.57" x2="1093.45" y2="1166.42" gradientTransform="matrix(1, 0, 0, -1, -56.2, 2600.14)" xlink:href="#Безымянный_градиент_8"/></defs><title>747-scheme</title><path class="cls-1" d="M1419.42,1554.63l-.49-4.17a2,2,0,0,0-2.15-1.84h0l-13.62,1.89a2.1,2.1,0,0,0-1.69,2.38l.49,4.17" transform="translate(-484.63 -1375.57)"/><path class="cls-1" d="M1419.42,1444.79l-.49,4.17a2,2,0,0,1-2.15,1.84h0l-13.62-1.89a2.1,2.1,0,0,1-1.69-2.38l.49-4.17" transform="translate(-484.63 -1375.57)"/><path class="cls-2" d="M1406.92,1433.72H763.28c-18.85,0-54.22,2.26-90.64,5s-109.48,16.74-127.6,23.17-60.41,18.17-60.41,38.65,42.29,32.22,60.41,38.65,91.18,20.4,127.6,23.17,71.79,5,90.64,5h643.64c71.4,0,177.71-23.56,177.71-23.56v-86.57S1478.32,1433.72,1406.92,1433.72Z" transform="translate(-484.63 -1375.57)"/><path class="cls-3" d="M1404.53,1436.81H766.86c-18.85,0-54.22,2.15-90.64,4.79s-109.48,16-127.6,22.1c-10.44,3.53-28.88,8.75-42.65,16.27v41.17c13.77,7.52,32.22,12.73,42.65,16.27,18.12,6.14,91.18,19.46,127.6,22.1s71.79,4.8,90.64,4.8h637.67c71.4,0,177.71-22.48,177.71-22.48v-82.57S1475.93,1436.81,1404.53,1436.81Z" transform="translate(-484.63 -1375.57)"/><path class="cls-1" d="M841.8,1564.34v-4.2a2,2,0,0,0-1.87-2.13H826.15a2,2,0,0,0-2,2s0,.09,0,.13v4.21" transform="translate(-484.63 -1375.57)"/><path class="cls-1" d="M841.8,1436.81V1441a2,2,0,0,1-1.87,2.13H826.15a2,2,0,0,1-2-2s0-.09,0-.13v-4.21" transform="translate(-484.63 -1375.57)"/><path class="cls-1" d="M1057.33,1564.34v-4.2a2,2,0,0,0-1.87-2.13h-13.81a2,2,0,0,0-2,2s0,.06,0,.08v4.21" transform="translate(-484.63 -1375.57)"/><path class="cls-1" d="M1057.33,1436.81V1441a2,2,0,0,1-1.87,2.13h-13.81a2,2,0,0,1-2-2s0-.06,0-.08v-4.21" transform="translate(-484.63 -1375.57)"/><path class="cls-1" d="M1248.47,1564.34v-4.2a2,2,0,0,0-1.87-2.13h-13.8a2,2,0,0,0-2,2s0,.09,0,.13v4.21" transform="translate(-484.63 -1375.57)"/><path class="cls-1" d="M1248.47,1436.81V1441a2,2,0,0,1-1.87,2.13h-13.8a2,2,0,0,1-2-2s0-.06,0-.08v-4.21" transform="translate(-484.63 -1375.57)"/><path class="cls-4" d="M1165.28,1567.42l7.66,58.15H967.5s-26.11-36.82-33.18-46.37-32.75-11.78-32.75-11.78Z" transform="translate(-484.63 -1375.57)"/><path class="cls-5" d="M1165.28,1433.72l7.66-58.15H967.5s-26.11,36.82-33.18,46.37-32.75,11.78-32.75,11.78Z" transform="translate(-484.63 -1375.57)"/></svg>