<?xml version="1.0" encoding="utf-8"?>
<!-- Generator: Adobe Illustrator 21.0.0, SVG Export Plug-In . SVG Version: 6.00 Build 0)  -->
<svg version="1.1" id="Слой_1" xmlns="http://www.w3.org/2000/svg" xmlns:xlink="http://www.w3.org/1999/xlink" x="0px" y="0px"
	 viewBox="0 0 136.3 112.6" style="enable-background:new 0 0 136.3 112.6;" xml:space="preserve">
<path d="M101,27.2C94,34,90.5,41.7,90.5,50.4c0,3.8,0.6,7,1.8,9.4c1.2,2.4,2.4,4.2,3.6,5.4c2.2-1.4,4.6-2.4,7.3-2.9
	c2.7-0.5,5.3-0.7,8-0.7c2.7,0,5.5,0.5,8.4,1.4c2.9,1,5.6,2.5,8,4.5c2.4,2,4.5,4.7,6.2,7.9c1.7,3.2,2.5,7.1,2.5,11.7
	c0,4.6-0.9,8.5-2.5,11.7c-1.7,3.2-3.9,5.9-6.5,7.9c-2.7,2-5.6,3.5-8.9,4.5c-3.3,1-6.5,1.4-9.6,1.4c-9.2,0-17.1-3.7-23.6-11.2
	c-6.5-7.4-9.8-18-9.8-31.7c0-9.4,1.8-17.6,5.3-24.8c3.5-7.2,7.8-13.6,12.9-19.1c5.1-5.5,10.7-10.4,16.7-14.6
	c6.1-4.2,11.6-8,16.7-11.3l2.5,4.7C117.5,12.8,108.1,20.3,101,27.2z M25.8,27.2c-7,6.8-10.5,14.6-10.5,23.2c0,3.8,0.6,7,1.8,9.4
	c1.2,2.4,2.4,4.2,3.6,5.4c2.2-1.4,4.6-2.4,7.3-2.9c2.7-0.5,5.3-0.7,8-0.7c2.7,0,5.5,0.5,8.4,1.4c2.9,1,5.6,2.5,8,4.5
	c2.4,2,4.5,4.7,6.2,7.9c1.7,3.2,2.5,7.1,2.5,11.7c0,4.6-0.9,8.5-2.5,11.7c-1.7,3.2-3.9,5.9-6.5,7.9c-2.7,2-5.6,3.5-8.9,4.5
	c-3.3,1-6.5,1.4-9.6,1.4c-9.2,0-17.1-3.7-23.6-11.2C3.3,94.1,0,83.5,0,69.8C0,60.5,1.8,52.2,5.3,45c3.5-7.2,7.8-13.6,12.9-19.1
	c5.1-5.5,10.7-10.4,16.7-14.6c6.1-4.2,11.6-8,16.7-11.3l2.5,4.7C42.3,12.8,32.8,20.3,25.8,27.2z"/>
</svg>
