<?xml version="1.0" encoding="utf-8"?>
<!-- Generator: Adobe Illustrator 17.0.0, SVG Export Plug-In . SVG Version: 6.00 Build 0)  -->
<!DOCTYPE svg PUBLIC "-//W3C//DTD SVG 1.1//EN" "http://www.w3.org/Graphics/SVG/1.1/DTD/svg11.dtd">
<svg version="1.1" id="Layer_1" xmlns="http://www.w3.org/2000/svg" xmlns:xlink="http://www.w3.org/1999/xlink" x="0px" y="0px"
	 width="457px" height="307px" viewBox="0 0 457 307" enable-background="new 0 0 457 307" xml:space="preserve">
<g>
	<path fill="#FFFFFF" d="M304.05,138.934c3.445,0,6.186,2.657,6.186,6.049c0,3.395-2.741,6.088-6.223,6.088
		c-3.482,0-6.261-2.692-6.261-6.088c0-3.392,2.778-6.049,6.261-6.049H304.05z M303.976,140.155c-2.628,0-4.667,2.173-4.667,4.827
		c0,2.693,2.039,4.834,4.741,4.834c2.63,0.037,4.633-2.141,4.633-4.796c0-2.692-2.003-4.865-4.669-4.865H303.976z M303.051,148.12
		h-1.408v-6.048c0.557-0.075,1.336-0.185,2.333-0.185c1.149,0,1.668,0.185,2.076,0.479c0.368,0.258,0.628,0.699,0.628,1.291
		c0,0.736-0.555,1.216-1.258,1.437v0.074c0.593,0.184,0.889,0.664,1.075,1.476c0.183,0.923,0.331,1.253,0.444,1.477h-1.483
		c-0.185-0.224-0.297-0.74-0.481-1.477c-0.111-0.629-0.482-0.921-1.261-0.921h-0.666V148.12z M303.087,144.727h0.667
		c0.778,0,1.407-0.261,1.407-0.887c0-0.55-0.407-0.921-1.296-0.921c-0.372,0-0.629,0.038-0.778,0.073V144.727z"/>
	<polygon fill="#FFFFFF" points="216.158,8.667 213.832,8.665 175.22,83.658 110.331,43.884 106.477,43.758 139.57,146.288 
		161.979,143.248 142.556,86.124 185.849,111.278 193.761,95.024 193.746,95.014 214.743,53.245 232.471,90.109 251.395,79.076 	"/>
	<polygon fill="#FFFFFF" points="318.728,43.884 214.531,107.19 198.948,98.087 191.242,114.414 213.21,127.176 214.531,127.176 
		215.852,127.176 286.505,86.124 267.082,143.248 289.49,146.288 322.584,43.758 	"/>
</g>
<g>
	<polygon fill="#FFFFFF" points="59.19,215.225 7.925,168.314 4.181,168.314 4.181,249.915 20.621,249.915 20.621,200.663 
		57.867,234.699 60.349,234.699 95.724,200.808 95.724,249.915 112.165,249.915 112.165,168.314 108.398,168.314 	"/>
	<rect x="132.415" y="169.541" fill="#FFFFFF" width="16.443" height="80.374"/>
	<path fill="#FFFFFF" d="M212.454,167.208l-55.567,82.707h17.589l9.941-14.848h59.341l10.183,14.848h18.234l-56.726-82.707H212.454z
		 M234.028,220.957h-40.183l19.882-29.565L234.028,220.957z"/>
	<polygon fill="#FFFFFF" points="333.946,215.225 282.681,168.314 278.935,168.314 278.935,249.915 295.378,249.915 
		295.378,200.663 332.619,234.699 335.102,234.699 370.478,200.808 370.478,249.915 386.922,249.915 386.922,168.314 
		383.155,168.314 	"/>
	<rect x="407.17" y="169.541" fill="#FFFFFF" width="16.444" height="80.374"/>
</g>
<path fill="#FFFFFF" d="M27.445,302.552c-13.142,0-22.466-5.511-22.466-15.269c0-9.809,9.954-15.703,22.176-15.703
	c9.275,0,13.818,1.74,15.605,2.417v3.574l-0.192,0.146c-2.272-1.549-6.426-3.865-15.269-3.865c-10.386,0-17.731,4.444-17.731,13.432
	c0,8.647,6.33,12.996,17.876,12.996c7.973,0,11.983-2.077,15.992-5.218l0.242,0.098v3.817
	C41.556,300.185,36.19,302.552,27.445,302.552z"/>
<path fill="#FFFFFF" d="M69.141,302.552c-11.307,0-21.646-5.073-21.646-15.366c0-10.725,10.87-15.605,21.646-15.605
	c10.726,0,21.645,4.783,21.645,15.511C90.786,297.381,80.445,302.552,69.141,302.552z M69.044,300.279
	c10.871,0,17.153-4.783,17.153-13.094c0-8.358-6.621-13.334-17.153-13.334c-10.533,0-16.959,4.881-16.959,13.239
	C52.085,295.401,58.222,300.279,69.044,300.279z"/>
<path fill="#FFFFFF" d="M97.547,271.967h3.769c8.794,8.264,19.615,17.925,28.456,25.704c0.097-6.814,0.097-19.325,0-25.56
	l0.193-0.145h2.417l0.194,0.195c-0.194,8.645-0.194,20.675,0,29.76l-0.242,0.195h-3.575c-7.585-7.345-20.05-18.507-28.604-25.996
	c-0.095,6.039-0.145,18.314,0,25.852l-0.192,0.145h-2.465l-0.144-0.145c0.144-7.442,0.144-22.855,0-29.861L97.547,271.967z"/>
<path fill="#FFFFFF" d="M141.077,302.022c0.192-9.28,0.192-22.616,0-29.621l0.192-0.192c3.72-0.145,6.911-0.629,15.413-0.629
	c12.321,0,23.191,5.075,23.191,15.8c0,9.567-10.531,15.172-23.191,15.172c-7.537,0-11.983-0.435-15.413-0.388L141.077,302.022z
	 M145.183,299.653c2.607,0.239,4.156,0.674,10.822,0.674c13.142,0,19.278-4.831,19.278-12.852c0-8.792-6.475-13.623-19.519-13.623
	c-5.121,0-7.585,0.435-10.581,0.869C145.037,279.651,145.084,291.487,145.183,299.653z"/>
<path fill="#FFFFFF" d="M206.154,302.552c-11.307,0-21.646-5.073-21.646-15.366c0-10.725,10.869-15.605,21.646-15.605
	c10.726,0,21.645,4.783,21.645,15.511C227.8,297.381,217.459,302.552,206.154,302.552z M206.058,300.279
	c10.87,0,17.152-4.783,17.152-13.094c0-8.358-6.621-13.334-17.152-13.334c-10.534,0-16.96,4.881-16.96,13.239
	C189.098,295.401,195.235,300.279,206.058,300.279z"/>
<path fill="#FFFFFF" d="M252.098,302.117h-3.818l-0.144-0.095c0.193-9.28,0.193-22.953,0-29.911l0.193-0.145h3.769l0.192,0.195
	c-0.146,4.686-0.192,10.869-0.192,17.15c9.903-6.476,17.104-11.983,24.256-17.346h5.41l0.096,0.195
	c-5.267,3.138-11.691,7.439-18.359,12.078c5.555,5.119,13.19,11.933,20.342,17.682l-0.147,0.195h-5.751
	c-6.569-6.281-11.546-10.63-17.681-15.605l-8.166,5.699c0.047,3.43,0.095,6.766,0.192,9.762L252.098,302.117z"/>
<path fill="#FFFFFF" d="M289.058,301.973c0.192-9.277,0.192-22.855,0-29.811l0.144-0.195h3.817l0.192,0.145
	c-0.192,10.436-0.145,20.1-0.048,29.861l-0.193,0.145h-3.768L289.058,301.973z"/>
<path fill="#FFFFFF" d="M302.147,271.967h3.768c8.793,8.264,19.616,17.925,28.459,25.704c0.098-6.814,0.098-19.325,0-25.56
	l0.193-0.145h2.415l0.192,0.195c-0.192,8.645-0.192,20.675,0,29.76l-0.242,0.195h-3.573c-7.585-7.345-20.051-18.507-28.604-25.996
	c-0.098,6.039-0.144,18.314,0,25.852l-0.192,0.145h-2.466l-0.143-0.145c0.143-7.442,0.143-22.855,0-29.861L302.147,271.967z"/>
<path fill="#FFFFFF" d="M365.923,302.552c-12.997,0-22.177-5.413-22.177-15.319c0-9.566,10.098-15.652,21.981-15.652
	c9.906,0,14.543,1.692,16.334,2.464v4.012l-0.195,0.095c-2.173-1.834-6.137-4.299-15.992-4.299
	c-10.533,0-17.538,4.494-17.538,13.381c0,8.99,6.038,13.047,17.587,13.047c6.087,0,9.758-1.11,13.188-2.414
	c0.099-3.43,0.099-5.362-0.048-10.485l0.194-0.194h3.768l0.194,0.145c-0.194,4.928-0.194,7.684,0,12.128
	C378.436,301.343,373.556,302.552,365.923,302.552z"/>
<path fill="#FFFFFF" d="M413.897,288.684c-4.687-0.771-11.888-0.095-18.215-1.546c-4.3-0.966-6.572-3.188-6.572-6.86
	c0-5.217,5.027-8.697,16.092-8.697c8.938,0,13.286,1.838,15.025,2.801v3.527l-0.242,0.098c-2.028-1.689-6.378-4.154-15.026-4.154
	c-10.098,0-12.561,2.946-12.561,5.699c0,2.465,1.643,3.867,4.83,4.494c4.88,0.969,11.741,0.435,17.491,1.259
	c5.025,0.724,8.02,2.753,8.02,6.907c0,5.847-5.362,10.341-17.877,10.341c-9.035,0-14.349-2.128-16.475-3.528v-3.914l0.193-0.095
	c3.526,3.091,8.263,5.265,16.523,5.265c10.437,0,14.059-2.993,14.059-6.812C419.162,291.05,417.472,289.263,413.897,288.684z"/>
<path fill="#FFFFFF" d="M440.644,169.109v1.564h-3.029v7.907h-1.88v-7.907h-2.994v-1.564H440.644z M450.88,178.581l-0.349-5.571
	c-0.035-0.731-0.035-1.601-0.069-2.647h-0.104c-0.245,0.835-0.523,1.949-0.802,2.82l-1.705,5.257h-1.95l-1.671-5.396
	c-0.174-0.696-0.487-1.847-0.696-2.682h-0.104c0,0.869-0.034,1.81-0.069,2.647l-0.348,5.571H441.2l0.697-9.472h2.855l1.601,4.63
	c0.244,0.732,0.416,1.426,0.627,2.403h0.069c0.209-0.835,0.452-1.671,0.626-2.333l1.637-4.7h2.75l0.696,9.472H450.88z"/>
</svg>
